<svg xmlns="http://www.w3.org/2000/svg" version="1.1" xmlns:xlink="http://www.w3.org/1999/xlink" xmlns:svgjs="http://svgjs.dev/svgjs" viewBox="0 0 800 800"><defs><linearGradient x1="50%" y1="0%" x2="50%" y2="100%" id="ccchaos-grad"><stop stop-color="hsl(206, 75%, 49%)" stop-opacity="1" offset="0%"></stop><stop stop-color="hsl(331, 90%, 56%)" stop-opacity="1" offset="100%"></stop></linearGradient></defs><g stroke-width="2" stroke="url(#ccchaos-grad)" fill="none" stroke-linecap="round"><path d="M415.97 100.39C426.22 99.82 436.63 100.23 447.17 101.57 457.71 103.36 468.35 106.04 479.03 109.51 489.65 113.31 500.21 117.8 510.58 122.87 520.75 128.09 530.55 133.77 539.8 139.81 548.61 145.8 556.64 152.05 563.69 158.47 570.05 164.7 575.25 171.05 579.16 177.46 582.36 183.6 584.32 189.79 585.15 196.02 585.7 201.95 585.59 207.95 585.18 214.01 585.49 219.81 586.34 225.73 588.23 231.78 591.98 237.63 597.5 243.68 605.04 249.93 614.83 256.04 626.51 262.41 639.71 269.05 653.95 275.6 668.37 282.47 682.03 289.64 694.19 296.77 703.79 304.23 709.98 312.02 712.69 319.78 711.35 327.88 706.09 336.31 698.14 344.73 687.81 353.48 676.34 362.57 665.73 371.64 656.66 381.05 650.35 390.78 648.12 400.52 649.72 410.36 654.75 420.3 663.01 430.25 672.82 440.31 682.9 450.45 692.64 460.63 700.22 470.9 704.77 481.26 706.28 491.66 703.93 502.15 697.92 512.69 688.98 523.26 677.39 533.87 664.02 544.47 649.8 555.06 635.4 565.58 621.58 575.95 608.96 586.22 597.85 596.25 588.46 605.93 581.02 615.36 575.23 624.3 570.84 632.64 567.94 640.54 565.8 647.69 564.01 653.96 562.07 661.98 555.54 671.83 549.92 673.51 545.42 673.71 539.9 672.93 533.43 671.23 526.55 669.29 518.85 666.7 510.47 663.64 501.82 660.8 492.65 657.85 483.08 654.96 473.4 652.83 463.44 651.1 453.29 649.91 443.11 649.86 432.8 650.53 422.4 651.94 412 654.53 401.75 657.67 391.66 661.21 381.55 665.5 371.55 669.82 361.64 673.95 351.66 678.25 341.72 681.96 331.79 684.91 321.73 687.5 311.63 689.02 301.49 689.41 291.22 689.1 280.91 687.53 270.59 684.73 260.22 681.13 249.93 676.35 239.8 670.48 229.83 663.94 220.19 656.46 211.01 648.19 202.25 639.47 194.14 630.14 186.82 620.35 180.09 610.34 174.25 600.03 169.32 589.53 164.94 578.99 161.37 568.38 158.53 557.76 155.86 547.21 153.62 536.71 151.64 526.29 149.3 515.99 146.89 505.77 144.29 495.66 140.98 485.65 137.37 475.72 133.51 465.87 129.06 456.09 124.6 446.36 120.35 436.68 116.1 427.04 112.5 417.42 109.8 407.82 107.73 398.23 106.87 388.65 107.29 379.09 108.47 369.52 110.76 360.2 113.91 351.13 117.27 342.06 121.02 333.26 124.93 324.74 128.37 316.22 131.62 308 134.6 300.11 136.83 292.23 138.82 284.68 140.67 277.49 142.06 270.31 143.64 263.49 145.57 257.05 147.61 250.6 150.37 244.5 153.95 238.77 158.08 233 163.19 227.55 169.25 222.42 175.95 217.17 183.52 212.19 191.81 207.45 200.53 202.51 209.76 197.74 219.34 193.12 229.01 188.23 238.83 183.42 248.69 178.68 258.4 173.6 268.04 168.56 277.58 163.55 286.86 158.2 296.05 152.91 305.18 147.69 314.05 142.22 322.92 136.89 331.85 131.79 340.6 126.57 349.48 121.7 358.56 117.26 367.54 112.93 376.78 109.18 386.33 106.11 395.84 103.36 405.71 101.42 415.96 100.39" stroke-dasharray="4 5" transform="rotate(0, 400, 400)" opacity="0.28"></path><path d="M420.7 110.99C430.66 110.43 440.66 110.79 450.64 112.04 460.61 113.73 470.54 116.26 480.34 119.57 490.05 123.2 499.53 127.5 508.66 132.38 517.55 137.42 525.93 142.92 533.64 148.79 540.93 154.66 547.38 160.79 552.85 167.12 557.77 173.29 561.63 179.6 564.4 186 566.73 192.16 568.15 198.38 568.82 204.64 569.57 210.64 570.08 216.7 570.71 222.81 572.32 228.68 574.77 234.65 578.44 240.73 583.93 246.61 591.12 252.65 600.09 258.87 610.91 264.94 623.17 271.23 636.43 277.77 650.2 284.2 663.68 290.91 676.01 297.9 686.62 304.83 694.58 312.07 699.24 319.61 700.7 327.12 698.48 334.95 692.79 343.1 684.85 351.23 674.93 359.68 664.12 368.46 654.23 377.23 645.81 386.34 639.9 395.77 637.72 405.2 638.99 414.75 643.41 424.4 650.84 434.06 659.83 443.82 669.26 453.67 678.64 463.55 686.3 473.52 691.42 483.55 693.97 493.61 693.06 503.74 688.74 513.88 681.63 524.03 671.8 534.18 659.95 544.26 646.91 554.31 633.21 564.23 619.59 573.95 606.63 583.54 594.71 592.83 584.13 601.73 575.16 610.36 567.69 618.47 561.59 625.96 556.99 633.02 553.34 639.33 550.31 644.79 543.56 655.75 529.22 660.42 521.55 658.27 515.85 656.4 509.35 654 502.12 651.18 494.67 648.64 486.61 646.01 478.03 643.46 469.33 641.63 460.23 640.17 450.79 639.19 441.31 639.26 431.56 639.97 421.58 641.33 411.6 643.77 401.63 646.69 391.7 649.97 381.76 653.95 371.82 657.96 361.9 661.81 351.93 665.85 341.94 669.37 331.92 672.23 321.84 674.8 311.71 676.43 301.55 677.04 291.37 677.06 281.19 675.93 271.07 673.67 261.03 670.7 251.16 666.62 241.56 661.5 232.22 655.76 223.32 649.1 214.97 641.64 207.08 633.73 199.9 625.19 193.53 616.14 187.71 606.83 182.74 597.17 178.61 587.26 174.9 577.26 171.89 567.11 169.47 556.91 167.09 546.73 164.99 536.54 163.04 526.4 160.64 516.33 158.09 506.32 155.3 496.4 151.79 486.56 147.99 476.79 143.95 467.1 139.39 457.48 134.85 447.93 130.55 438.44 126.32 428.99 122.75 419.58 120.1 410.23 118.09 400.9 117.28 391.6 117.73 382.36 118.95 373.12 121.26 364.14 124.43 355.44 127.83 346.74 131.65 338.32 135.65 330.2 139.21 322.08 142.61 314.25 145.74 306.76 148.13 299.26 150.25 292.09 152.17 285.26 153.56 278.42 155.03 271.93 156.74 265.77 158.44 259.6 160.73 253.74 163.72 248.22 167.16 242.62 171.5 237.31 176.74 232.28 182.6 227.11 189.34 222.17 196.85 217.43 204.87 212.49 213.48 207.69 222.56 203.02 231.86 198.07 241.44 193.19 251.16 188.37 260.87 183.24 270.6 178.14 280.29 173.09 289.83 167.73 299.31 162.43 308.72 157.24 317.93 151.81 327.12 146.55 336.31 141.53 345.35 136.43 354.45 131.68 363.66 127.36 372.78 123.15 382.07 119.52 391.56 116.55 401.02 113.89 410.73 112.01 420.69 110.99" stroke-dasharray="10 4" transform="rotate(4.04, 400, 400)" opacity="0.28"></path><path d="M422.49 121.6C432.09 121.03 441.59 121.35 450.93 122.51 460.25 124.1 469.38 126.49 478.23 129.62 486.98 133.08 495.35 137.18 503.25 141.86 510.92 146.71 517.98 152.02 524.32 157.71 530.31 163.42 535.47 169.41 539.73 175.62 543.62 181.71 546.62 187.95 548.79 194.3 550.79 200.45 552.21 206.68 553.22 212.96 554.63 219 556.15 225.1 558.09 231.26 561.18 237.19 565.27 243.21 570.63 249.32 577.67 255.23 586.22 261.29 596.27 267.49 607.72 273.55 620.17 279.79 633.14 286.25 646.15 292.6 658.48 299.19 669.37 306.03 678.4 312.81 684.79 319.86 688.03 327.19 688.37 334.49 685.42 342.08 679.43 349.97 671.59 357.84 662.11 366.03 651.96 374.52 642.78 383.01 634.98 391.81 629.46 400.94 627.32 410.06 628.3 419.3 632.13 428.64 638.78 437.98 646.96 447.42 655.71 456.94 664.65 466.47 672.27 476.08 677.79 485.73 681.18 495.39 681.52 505.09 678.76 514.77 673.39 524.43 665.33 534.05 655.13 543.56 643.48 553 630.81 562.27 617.77 571.3 604.91 580.17 592.64 588.7 581.3 596.8 571.19 604.63 562.33 611.92 554.72 618.58 548.49 624.84 543.28 630.37 538.85 635.08 529.44 644.25 514.8 647.49 508.05 645.34 503.15 643.59 497.53 641.37 491.22 638.82 484.74 636.57 477.62 634.26 469.93 632.03 462.14 630.48 453.84 629.27 445.11 628.49 436.35 628.67 427.19 629.41 417.7 630.72 408.2 633.02 398.6 635.74 388.93 638.76 379.27 642.44 369.53 646.14 359.74 649.71 349.95 653.49 340.09 656.81 330.19 659.55 320.29 662.08 310.36 663.78 300.44 664.57 290.57 664.86 280.78 664.11 271.13 662.33 261.65 659.92 252.43 656.49 243.58 652.08 235.06 647.08 227.04 641.2 219.64 634.55 212.71 627.44 206.5 619.69 201.07 611.4 196.14 602.83 191.97 593.86 188.54 584.6 185.41 575.2 182.84 565.6 180.72 555.89 178.51 546.16 176.46 536.38 174.45 526.59 171.91 516.85 169.17 507.13 166.15 497.47 162.43 487.87 158.44 478.33 154.23 468.87 149.57 459.47 144.98 450.13 140.67 440.87 136.47 431.64 132.97 422.48 130.38 413.39 128.45 404.32 127.69 395.31 128.17 386.39 129.42 377.46 131.74 368.82 134.91 360.47 138.34 352.11 142.21 344.04 146.27 336.28 149.95 328.51 153.48 321.04 156.77 313.89 159.34 306.73 161.62 299.88 163.66 293.36 165.12 286.81 166.56 280.58 168.14 274.67 169.59 268.71 171.5 263.05 173.99 257.67 176.79 252.21 180.41 247 184.85 242.03 189.85 236.91 195.71 231.98 202.36 227.23 209.54 222.26 217.38 217.42 225.78 212.68 234.5 207.68 243.59 202.73 252.95 197.85 262.41 192.67 271.99 187.54 281.62 182.46 291.2 177.1 300.77 171.82 310.29 166.66 319.7 161.31 329.07 156.14 338.41 151.22 347.65 146.24 356.89 141.62 366.16 137.43 375.37 133.36 384.66 129.85 394.04 126.98 403.39 124.41 412.88 122.59 422.48 121.6" stroke-dasharray="2 5" transform="rotate(8.08, 400, 400)" opacity="0.25"></path><path d="M421.08 132.21C430.25 131.64 439.19 131.91 447.85 132.99 456.48 134.47 464.79 136.72 472.71 139.68 480.53 142.95 487.88 146.85 494.67 151.32 501.28 155.96 507.24 161.06 512.49 166.55 517.5 172.09 521.75 177.91 525.24 183.98 528.55 189.96 531.19 196.11 533.26 202.38 535.41 208.49 537.28 214.69 539.07 220.96 541.46 227.02 544.22 233.15 547.62 239.33 552.21 245.31 557.84 251.36 564.7 257.5 573.01 263.45 582.59 269.52 593.31 275.72 605.01 281.78 617.28 287.99 629.63 294.39 641.65 300.68 652.67 307.18 662.05 313.9 669.53 320.55 674.42 327.45 676.38 334.6 675.74 341.71 672.19 349.1 666.02 356.76 658.35 364.39 649.34 372.32 639.86 380.53 631.37 388.74 624.16 397.25 619.02 406.06 616.93 414.88 617.64 423.79 620.93 432.79 626.83 441.79 634.21 450.88 642.26 460.02 650.7 469.16 658.15 478.36 663.91 487.58 667.96 496.79 669.37 506 668 515.16 664.26 524.28 657.93 533.32 649.41 542.2 639.32 551 627.92 559.59 615.8 567.89 603.46 576.02 591.27 583.79 579.61 591.1 568.78 598.14 558.92 604.64 550.09 610.51 542.44 616.01 535.77 620.81 529.94 624.83 522.91 629.82 511.48 635.06 506.01 635.37 500.5 634.54 487.01 629.84 478.77 626.56 472.97 624.59 466.58 622.58 459.61 620.66 452.56 619.38 444.98 618.41 436.92 617.81 428.81 618.09 420.26 618.85 411.29 620.12 402.32 622.27 393.18 624.79 383.89 627.57 374.63 630.96 365.24 634.37 355.76 637.66 346.31 641.17 336.78 644.29 327.22 646.9 317.72 649.36 308.22 651.08 298.78 652 289.47 652.5 280.29 652.08 271.34 650.72 262.63 648.82 254.25 645.96 246.3 642.2 238.72 637.91 231.69 632.78 225.29 626.89 219.34 620.56 214.07 613.59 209.54 606.08 205.41 598.26 201.93 590.02 199.09 581.43 196.4 572.69 194.14 563.7 192.2 554.55 190.04 545.34 187.94 536.04 185.78 526.69 183.05 517.34 180.07 507.99 176.81 498.67 172.88 489.39 168.69 480.15 164.35 470.98 159.61 461.84 155 452.77 150.7 443.78 146.57 434.81 143.15 425.92 140.64 417.12 138.8 408.33 138.1 399.62 138.62 391 139.88 382.39 142.19 374.06 145.35 366.04 148.79 358 152.67 350.26 156.78 342.82 160.56 335.37 164.24 328.22 167.68 321.37 170.45 314.5 172.92 307.93 175.11 301.67 176.7 295.36 178.19 289.35 179.72 283.63 181.83 275.08 188.48 259.11 193.66 251.6 197.82 246.5 202.8 241.57 208.55 236.78 214.81 231.78 221.77 226.89 229.34 222.09 237.29 217.04 245.71 212.04 254.48 207.1 263.45 201.9 272.65 196.74 281.97 191.65 291.34 186.32 300.77 181.08 310.19 175.98 319.58 170.72 328.95 165.65 338.27 160.84 347.55 156 356.79 151.52 366.01 147.47 375.19 143.55 384.37 140.16 393.55 137.4 402.72 134.93 411.9 133.18 421.07 132.21" stroke-dasharray="1 1" transform="rotate(12.12, 400, 400)" opacity="0.61"></path><path d="M416.67 142.81C425.36 142.25 433.71 142.48 441.7 143.47 449.65 144.85 457.19 146.95 464.28 149.74 471.27 152.82 477.75 156.52 483.66 160.76 489.43 165.18 494.59 170.07 499.11 175.34 503.49 180.68 507.25 186.32 510.43 192.21 513.6 198.05 516.33 204.07 518.73 210.24 521.43 216.28 524.09 222.42 526.93 228.65 530.49 234.7 534.59 240.82 539.44 247 545.42 253 552.4 259.08 560.46 265.23 569.69 271.21 579.9 277.29 590.9 283.48 602.48 289.53 614.23 295.73 625.7 302.08 636.54 308.32 646.15 314.75 654.01 321.37 659.99 327.91 663.5 334.68 664.31 341.67 662.85 348.61 658.83 355.8 652.58 363.24 645.15 370.66 636.64 378.34 627.82 386.29 619.99 394.22 613.36 402.44 608.57 410.93 606.54 419.42 607.01 428 609.8 436.63 614.99 445.26 621.6 453.96 628.93 462.69 636.81 471.42 644 480.17 649.85 488.9 654.38 497.62 656.66 506.3 656.49 514.89 654.23 523.44 649.54 531.85 642.7 540.09 634.24 548.21 624.3 556.1 613.35 563.67 601.87 571.06 590.17 578.07 578.63 584.61 567.54 590.89 557.09 596.64 547.42 601.77 538.67 606.57 530.78 610.7 523.7 614.12 514.71 618.31 500.09 622.45 493.59 622.49 487.43 621.61 473.83 617.29 465.99 614.39 460.57 612.7 454.64 610.99 448.19 609.37 441.7 608.34 434.7 607.58 427.2 607.15 419.69 607.51 411.7 608.3 403.29 609.51 394.87 611.53 386.23 613.86 377.44 616.4 368.67 619.52 359.76 622.64 350.77 625.66 341.82 628.91 332.82 631.81 323.81 634.27 314.9 636.64 306.03 638.36 297.3 639.36 288.73 640.03 280.36 639.88 272.28 638.87 264.47 637.41 257.05 635.08 250.11 631.91 243.52 628.26 237.49 623.82 232.08 618.66 227.06 613.09 222.67 606.88 218.93 600.12 215.47 593.07 212.56 585.56 210.15 577.69 207.77 569.63 205.68 561.3 203.79 552.76 201.58 544.13 199.33 535.36 196.95 526.51 193.99 517.64 190.75 508.73 187.23 499.81 183.1 490.91 178.75 482.03 174.28 473.2 169.51 464.39 164.9 455.63 160.66 446.95 156.62 438.29 153.31 429.7 150.9 421.2 149.15 412.71 148.52 404.3 149.06 396 150.34 387.7 152.63 379.68 155.75 371.97 159.18 364.24 163.06 356.8 167.2 349.65 171.06 342.49 174.85 335.61 178.45 329.03 181.42 322.41 184.09 316.08 186.47 310.02 188.23 303.92 189.85 298.09 191.41 292.51 193.38 284.15 198.94 268.39 203.19 260.9 206.58 255.81 210.72 250.86 215.58 246.03 220.9 241 226.92 236.07 233.57 231.21 240.63 226.12 248.21 221.08 256.21 216.11 264.48 210.9 273.06 205.74 281.84 200.67 290.76 195.39 299.8 190.21 308.9 185.18 318.03 180.03 327.18 175.09 336.29 170.41 345.41 165.72 354.48 161.39 363.49 157.48 372.49 153.72 381.44 150.47 390.31 147.82 399.18 145.45 407.98 143.76 416.66 142.81" stroke-dasharray="11 4" transform="rotate(16.16, 400, 400)" opacity="0.13"></path><path d="M409.9 153.42C418.06 152.86 425.83 153.05 433.19 153.96 440.51 155.23 447.39 157.19 453.79 159.8 460.13 162.69 465.95 166.18 471.24 170.19 476.45 174.39 481.13 179.04 485.28 184.08 489.4 189.2 493.07 194.63 496.34 200.32 499.74 205.99 502.91 211.86 506 217.89 509.5 223.82 513.17 229.88 517.18 236.03 521.96 242.03 527.36 248.12 533.51 254.27 540.66 260.26 548.7 266.33 557.61 272.47 567.39 278.46 577.85 284.54 588.74 290.72 599.86 296.76 610.81 302.93 621.18 309.23 630.71 315.43 638.87 321.79 645.23 328.31 649.79 334.76 652.05 341.4 651.86 348.24 649.71 355.03 645.36 362.04 639.12 369.27 631.99 376.47 624.01 383.92 615.85 391.59 608.66 399.26 602.56 407.17 598.13 415.33 596.16 423.48 596.41 431.7 598.73 439.95 603.26 448.19 609.12 456.48 615.73 464.76 623.02 473.03 629.85 481.3 635.66 489.52 640.49 497.71 643.44 505.83 644.29 513.83 643.34 521.77 640.16 529.54 634.93 537.1 628.11 544.55 619.72 551.73 610.14 558.58 599.81 565.25 588.95 571.52 577.92 577.33 567 582.89 556.39 587.93 546.3 592.39 536.84 596.55 528.06 600.09 519.98 602.96 512.65 605.52 505.92 607.41 499.71 608.61 491.45 609.72 476.52 608.71 469.22 606.9 461.96 604.85 445.93 600.2 436.94 598.14 430.8 597.35 424.21 596.78 417.19 596.51 410.15 596.94 402.68 597.74 394.81 598.9 386.94 600.79 378.86 602.93 370.64 605.26 362.44 608.11 354.13 610.96 345.76 613.71 337.44 616.7 329.11 619.38 320.83 621.68 312.66 623.93 304.59 625.61 296.71 626.67 289.01 627.46 281.57 627.52 274.47 626.82 267.63 625.73 261.21 623.86 255.29 621.21 249.68 618.15 244.6 614.35 240.11 609.87 235.91 605.01 232.27 599.54 229.18 593.51 226.25 587.21 223.74 580.44 221.61 573.28 219.38 565.93 217.33 558.27 215.37 550.38 213.01 542.37 210.55 534.19 207.9 525.9 204.67 517.55 201.17 509.13 197.4 500.68 193.08 492.23 188.59 483.76 184.04 475.32 179.27 466.89 174.7 458.5 170.54 450.16 166.63 441.84 163.44 433.59 161.14 425.41 159.5 417.25 158.94 409.16 159.5 401.17 160.78 393.18 163.04 385.48 166.12 378.05 169.51 370.62 173.37 363.46 177.51 356.58 181.43 349.69 185.32 343.06 189.05 336.7 192.22 330.31 195.1 324.17 197.7 318.29 200.57 309.51 205.11 292.99 207.4 285.18 209.95 277.37 217.86 262.31 223.57 254.95 227.98 249.9 233.07 244.92 238.76 240.02 244.86 234.91 251.5 229.86 258.6 224.87 266.02 219.68 273.79 214.55 281.85 209.51 290.1 204.3 298.53 199.21 307.08 194.28 315.73 189.26 324.43 184.45 333.13 179.92 341.87 175.4 350.59 171.23 359.22 167.48 367.89 163.87 376.46 160.76 384.92 158.23 393.39 155.96 401.72 154.34 409.88 153.42" stroke-dasharray="3 1" transform="rotate(20.200000000000003, 400, 400)" opacity="0.64"></path><path d="M401.71 164.03C409.34 163.47 416.56 163.62 423.37 164.45 430.16 165.61 436.5 167.43 442.4 169.86 448.26 172.57 453.66 175.84 458.61 179.61 463.54 183.58 468.05 187.98 472.17 192.77 476.35 197.66 480.24 202.86 483.92 208.33 487.84 213.8 491.71 219.49 495.67 225.35 500.1 231.14 504.84 237.07 510.02 243.1 515.92 249.02 522.44 255.03 529.65 261.12 537.68 267.08 546.41 273.11 555.79 279.21 565.74 285.18 576.05 291.23 586.5 297.37 596.86 303.39 606.79 309.52 615.91 315.76 624.06 321.91 630.77 328.19 635.7 334.62 638.95 340.97 640.1 347.49 639.07 354.18 636.38 360.82 631.82 367.65 625.68 374.67 618.89 381.66 611.45 388.86 603.93 396.26 597.36 403.65 591.79 411.25 587.69 419.06 585.79 426.88 585.84 434.72 587.73 442.56 591.63 450.4 596.78 458.24 602.69 466.05 609.34 473.86 615.74 481.61 621.4 489.29 626.37 496.94 629.81 504.48 631.47 511.86 631.62 519.18 629.79 526.31 626.06 533.2 620.84 539.98 614.03 546.47 605.93 552.61 596.94 558.58 587.19 564.16 577 569.27 566.64 574.17 556.31 578.57 546.21 582.42 536.47 586.01 527.2 589.02 518.45 591.43 510.28 593.58 502.66 595.13 495.52 596.08 488.93 596.83 482.7 597.02 476.75 596.69 468.45 595.87 452.4 592.51 444.21 590.38 438.78 589.23 433.08 588.07 427.08 586.98 421.1 586.4 414.78 586.02 408.12 585.88 401.45 586.38 394.43 587.19 387.07 588.3 379.71 590.06 372.2 592.02 364.6 594.14 357.02 596.73 349.37 599.32 341.71 601.81 334.11 604.54 326.56 607.01 319.1 609.13 311.76 611.25 304.57 612.87 297.63 613.94 290.86 614.81 284.38 615.03 278.28 614.58 269.68 613.07 255.16 606.01 249.33 600.53 245.82 596.34 242.76 591.55 240.15 586.24 237.57 580.65 235.31 574.6 233.29 568.15 231.08 561.52 228.95 554.55 226.8 547.32 224.23 539.97 221.49 532.41 218.55 524.7 215.04 516.93 211.27 509.05 207.28 501.11 202.8 493.14 198.22 485.14 193.63 477.14 188.89 469.14 184.41 461.15 180.35 453.2 176.59 445.26 173.55 437.36 171.38 429.53 169.85 421.71 169.36 413.96 169.95 406.29 171.22 398.63 173.44 391.22 176.45 384.08 179.78 376.94 183.6 370.05 187.71 363.41 191.66 356.76 195.63 350.36 199.48 344.2 202.83 338.01 205.92 332.04 208.74 326.31 211.97 317.74 216.92 301.48 219.16 293.73 221.39 285.97 227.9 270.89 232.56 263.5 236.15 258.43 240.35 253.44 245.12 248.51 250.25 243.41 255.92 238.36 262.07 233.38 268.52 228.23 275.38 223.15 282.57 218.18 289.98 213.07 297.64 208.09 305.46 203.28 313.43 198.4 321.49 193.75 329.6 189.38 337.78 185.04 345.96 181.04 354.08 177.45 362.25 174.01 370.33 171.05 378.28 168.63 386.25 166.47 394.07 164.91 401.7 164.03" stroke-dasharray="6 8" transform="rotate(24.24, 400, 400)" opacity="0.83"></path><path d="M393.28 174.63C400.38 174.08 407.11 174.19 413.47 174.95 419.82 176.01 425.78 177.68 431.36 179.94 436.93 182.45 442.13 185.5 446.98 189.04 451.87 192.76 456.47 196.91 460.82 201.44 465.3 206.07 469.65 211.03 473.94 216.25 478.52 221.5 483.2 226.97 488.08 232.63 493.45 238.24 499.19 244.01 505.38 249.89 512.2 255.69 519.57 261.59 527.52 267.57 536.07 273.45 545.13 279.41 554.58 285.44 564.33 291.36 574.17 297.35 583.87 303.43 593.25 309.4 601.99 315.47 609.78 321.63 616.52 327.71 621.82 333.9 625.42 340.21 627.5 346.46 627.69 352.85 625.97 359.37 622.88 365.86 618.21 372.5 612.26 379.3 605.85 386.08 598.97 393.03 592.08 400.14 586.1 407.25 581.02 414.53 577.24 421.98 575.42 429.44 575.29 436.88 576.8 444.3 580.12 451.72 584.58 459.11 589.79 466.43 595.8 473.74 601.71 480.98 607.11 488.1 612.08 495.19 615.82 502.14 618.1 508.91 619.16 515.62 618.48 522.11 616.1 528.34 612.38 534.47 607.11 540.29 600.53 545.76 592.99 551.08 584.54 556 575.45 560.49 565.98 564.78 556.29 568.6 546.58 571.9 536.98 575 527.62 577.56 518.6 579.58 509.97 581.39 501.75 582.67 493.96 583.42 486.59 584.03 479.6 584.16 472.92 583.83 466.6 583.48 460.47 582.77 454.47 581.74 448.7 580.85 442.94 579.76 437.14 578.55 431.45 577.64 425.63 576.73 419.64 575.88 413.68 575.5 407.51 575.29 401.11 575.27 394.71 575.83 388.06 576.63 381.17 577.69 374.28 579.33 367.32 581.13 360.34 583.04 353.38 585.39 346.41 587.72 339.51 589.97 332.66 592.45 325.9 594.69 319.31 596.64 312.81 598.6 306.53 600.14 300.52 601.19 291.88 602.28 276.67 601.1 270.24 598.75 264.5 595.33 255.28 585.02 251.63 578.29 249.24 573.39 247.06 568.03 245.01 562.27 242.7 556.33 240.37 550.05 237.97 543.49 235.12 536.8 232.08 529.88 228.83 522.79 225.05 515.62 221.05 508.31 216.86 500.91 212.28 493.48 207.63 485.98 203.05 478.45 198.38 470.92 194.02 463.36 190.11 455.83 186.52 448.3 183.64 440.79 181.61 433.34 180.2 425.88 179.78 418.48 180.39 411.14 181.65 403.81 183.82 396.71 186.75 389.85 190 382.99 193.75 376.36 197.81 369.96 201.77 363.54 205.79 357.35 209.73 351.37 213.23 345.36 216.52 339.56 219.57 333.95 223.17 325.56 228.73 309.53 231.07 301.84 233.17 294.12 238.7 279.05 242.52 271.65 245.42 266.59 248.84 261.59 252.78 256.67 256.99 251.59 261.73 246.58 266.93 241.64 272.41 236.55 278.31 231.56 284.56 226.68 291.04 221.69 297.81 216.84 304.79 212.18 311.93 207.47 319.22 202.99 326.6 198.8 334.07 194.64 341.58 190.83 349.08 187.41 356.62 184.13 364.11 181.32 371.49 179.03 378.9 176.97 386.17 175.49 393.27 174.63" stroke-dasharray="2 5" transform="rotate(28.28, 400, 400)" opacity="0.26"></path><path d="M385.81 185.24C392.41 184.7 398.72 184.77 404.73 185.45 410.73 186.41 416.44 187.94 421.86 190.02 427.3 192.35 432.48 195.18 437.43 198.47 442.45 201.94 447.31 205.83 452.06 210.09 456.97 214.46 461.88 219.14 466.86 224.1 472.13 229.1 477.6 234.33 483.33 239.75 489.5 245.16 496.04 250.73 503 256.42 510.46 262.06 518.36 267.81 526.68 273.64 535.38 279.4 544.38 285.25 553.55 291.16 562.77 296.99 571.85 302.89 580.57 308.86 588.81 314.76 596.27 320.73 602.68 326.78 608.06 332.77 612.03 338.85 614.43 345.02 615.48 351.15 614.87 357.39 612.61 363.74 609.26 370.05 604.59 376.49 598.88 383.06 592.9 389.61 586.57 396.3 580.29 403.12 574.88 409.93 570.27 416.88 566.8 423.96 565.05 431.04 564.78 438.08 565.93 445.07 568.71 452.05 572.53 458.97 577.07 465.8 582.42 472.61 587.8 479.32 592.85 485.88 597.69 492.41 601.57 498.78 604.28 504.95 606.18 513.99 600.81 530.63 593.8 538.07 587.74 542.79 580.7 547.12 572.88 551.03 564.55 554.78 555.79 558.09 546.81 560.93 537.73 563.59 528.68 565.78 519.78 567.48 511.07 569.02 502.64 570.1 494.52 570.71 486.69 571.23 479.19 571.33 471.99 571.05 465.08 570.77 458.4 570.19 451.91 569.35 445.64 568.65 439.46 567.79 433.35 566.83 427.36 566.16 421.35 565.48 415.3 564.86 409.29 564.65 403.19 564.59 396.97 564.68 390.76 565.28 384.42 566.08 377.95 567.08 371.47 568.6 365.02 570.24 358.63 571.97 352.25 574.09 345.95 576.18 339.77 578.19 333.64 580.42 327.66 582.44 321.89 584.2 313.47 586.73 298.19 589.58 291.47 589.68 280.12 586.6 266.81 575.52 263.38 569.69 259.89 563.08 252.74 547.56 248.74 538.85 245.58 532.82 242.24 526.54 238.68 520.07 234.67 513.52 230.47 506.8 226.14 499.96 221.49 493.09 216.85 486.12 212.32 479.09 207.77 472.05 203.55 464.97 199.82 457.87 196.42 450.78 193.72 443.69 191.84 436.62 190.56 429.55 190.21 422.51 190.83 415.51 192.08 408.52 194.18 401.73 197.01 395.16 200.17 388.58 203.82 382.2 207.81 376.03 211.75 369.85 215.77 363.85 219.78 358.05 223.41 352.21 226.87 346.56 230.12 341.07 234.12 332.85 240.4 317.05 242.97 309.42 245.13 301.76 250.12 286.75 253.34 279.37 255.7 274.34 258.49 269.38 261.72 264.49 265.15 259.46 269.04 254.51 273.37 249.65 277.92 244.66 282.89 239.78 288.22 235.02 293.75 230.18 299.59 225.49 305.69 220.99 311.93 216.47 318.37 212.18 324.95 208.17 331.63 204.21 338.39 200.59 345.19 197.35 352.03 194.25 358.88 191.59 365.66 189.42 372.47 187.47 379.19 186.06 385.8 185.24" stroke-dasharray="9 3" transform="rotate(32.32, 400, 400)" opacity="0.34"></path><path d="M380.35 195.85C389.48 195.34 406.73 197.52 414.89 200.12 420.3 202.25 425.57 204.86 430.72 207.91 435.97 211.13 441.17 214.75 446.37 218.73 451.74 222.82 457.21 227.22 462.82 231.89 468.7 236.62 474.82 241.59 481.21 246.75 487.95 251.91 495.03 257.25 502.44 262.71 510.2 268.15 518.27 273.71 526.59 279.36 535.09 284.96 543.69 290.64 552.26 296.4 560.68 302.1 568.78 307.87 576.36 313.7 583.36 319.47 589.5 325.32 594.57 331.23 598.66 337.09 601.43 343.02 602.76 349.04 602.95 355.01 601.69 361.07 599.05 367.22 595.54 373.35 590.96 379.57 585.56 385.89 580.02 392.19 574.25 398.6 568.57 405.1 563.7 411.6 559.54 418.21 556.36 424.9 554.68 431.6 554.29 438.23 555.13 444.77 557.41 451.31 560.62 457.76 564.52 464.09 569.21 470.4 574.03 476.58 578.66 482.6 583.26 488.58 587.14 494.38 590.1 499.97 592.87 508.14 590.65 523.02 585.67 529.6 581.06 533.77 575.44 537.57 568.99 540.97 561.95 544.25 554.34 547.12 546.34 549.56 538.1 551.87 529.7 553.75 521.27 555.19 512.87 556.53 504.59 557.46 496.49 557.98 488.56 558.45 480.86 558.57 473.42 558.36 466.17 558.18 459.15 557.75 452.34 557.1 445.7 556.59 439.21 555.96 432.86 555.23 426.62 554.78 420.45 554.32 414.32 553.89 408.25 553.85 402.19 553.91 396.11 554.1 390.06 554.73 383.97 555.53 377.85 556.48 371.74 557.88 365.74 559.37 359.88 560.92 351.18 563.75 334.67 569.35 326.98 571.83 319.62 574.13 306.42 576.85 300.66 577.07 290.76 574.71 278.57 565.47 275.1 560.47 271.41 554.74 263.48 541.1 259 533.35 255.54 527.96 251.9 522.32 248.08 516.46 243.87 510.53 239.53 504.41 235.11 498.14 230.46 491.84 225.86 485.41 221.44 478.9 217.05 472.37 213.02 465.78 209.49 459.15 206.3 452.51 203.8 445.85 202.08 439.19 200.92 432.52 200.64 425.86 201.28 419.22 202.49 412.58 204.52 406.11 207.24 399.83 210.29 393.54 213.83 387.42 217.71 381.48 221.59 375.52 225.59 369.73 229.62 364.1 233.35 358.44 236.95 352.93 240.38 347.57 244.75 339.53 251.82 323.98 254.72 316.43 257.09 308.85 261.98 293.98 264.84 286.66 267.99 279.24 276.24 264.61 281.43 257.42 285.17 252.57 289.3 247.82 293.78 243.21 298.42 238.54 303.38 234.03 308.61 229.72 313.97 225.4 319.56 221.31 325.34 217.5 331.19 213.76 337.19 210.33 343.27 207.28 349.4 204.35 355.59 201.85 361.78 199.81 367.99 197.97 374.19 196.64 380.34 195.85" stroke-dasharray="2 10" transform="rotate(36.36, 400, 400)" opacity="0.67"></path><path d="M377.68 206.45C386.26 205.94 402.93 207.87 411.06 210.24 421.97 214.32 432.83 220.13 443.88 227.37 455.56 235.08 467.96 243.93 481.26 253.64 495.55 263.44 510.83 273.88 526.68 284.75 542.6 295.5 557.82 306.61 571.05 317.95 581.81 329.12 588.61 340.57 590.47 352.24 588.58 363.78 582.16 375.64 572.31 387.74 567.24 393.77 562.02 399.88 556.91 406.06 552.55 412.24 548.81 418.48 545.91 424.78 544.33 431.08 543.83 437.29 544.38 443.39 546.21 449.48 548.87 455.45 552.15 461.29 560.82 472.91 569.26 483.89 575.67 494.01 580.15 503.92 580.34 512.81 576.15 520.43 568.82 527.7 557.94 533.56 544.66 537.89 530.03 541.84 514.54 544.3 499.06 545.3 483.77 546.23 469.06 546.06 455.14 545 441.68 544.56 428.83 543.8 416.51 543 410.42 543.1 404.42 543.27 398.48 543.54 389.64 544.59 372.31 547.83 364.1 549.89 358.7 551.58 353.5 553.23 348.53 554.79 338.62 558.48 329.69 561.33 321.88 563.05 314.15 564.68 307.53 564.67 302 562.96 296.23 560.65 291.15 556.5 286.49 550.67 280.84 544.2 274.98 536.22 268.64 526.99 260.82 517.35 252.44 506.72 243.79 495.38 234.51 483.86 226.01 471.83 219.13 459.52 216.17 453.36 213.87 447.14 212.31 440.89 211.28 434.65 211.07 428.38 211.72 422.1 212.9 415.82 214.84 409.69 217.45 403.7 220.37 397.71 223.77 391.85 227.52 386.15 235.01 374.7 242.83 363.76 250.32 353.35 256.26 342.77 261.51 332.6 266.18 322.83 269.48 312.76 272.87 302.98 276.75 293.51 280.31 283.69 285.01 274.13 290.98 264.96 297.27 255.52 304.94 246.58 313.78 238.37 322.99 230.2 333.14 223.04 343.92 217.19 349.37 214.45 354.92 212.1 360.56 210.19 366.21 208.46 371.92 207.21 377.67 206.46" stroke-dasharray="10 7" transform="rotate(40.400000000000006, 400, 400)" opacity="0.93"></path><path d="M378.19 217.06C388.99 216.26 399.78 217.42 410.56 220.37 421.5 224.07 432.71 229.38 444.31 236.04 456.42 243.15 469.26 251.38 482.83 260.45 496.98 269.67 511.68 279.55 526.39 289.88 540.66 300.15 553.73 310.79 564.5 321.68 572.82 332.44 577.41 343.47 577.64 354.66 574.85 365.77 568.35 377.12 559.16 388.63 550.22 400.11 541.77 411.8 535.47 423.59 533.66 435.39 535.41 446.71 539.96 457.43 547.4 468.09 554.94 478.06 561.08 487.14 566.03 496.05 567.52 503.95 565.29 510.66 560.42 517.09 552.17 522.23 541.38 526.01 529.07 529.52 515.46 531.74 501.37 532.7 487.07 533.7 472.97 533.76 459.42 533.06 446.11 532.98 433.36 532.61 421.23 532.16 409.25 532.91 397.71 533.94 386.68 535.26 375.65 537.96 365.58 540.67 356.49 543.18 347.39 546.42 339.29 548.92 332.24 550.43 325.12 551.94 318.93 552.03 313.57 550.64 307.78 548.8 302.43 545.33 297.26 540.34 291.07 534.84 284.57 527.91 277.62 519.8 269.42 511.32 260.83 501.84 252.19 491.61 243.21 481.21 235.15 470.24 228.75 458.89 223.71 447.5 221.38 435.83 222.16 424.03 224.9 412.23 230.19 400.85 237.24 389.95 244.53 379 252.3 368.45 259.92 358.35 266.26 348.1 272.02 338.17 277.22 328.59 281.07 318.78 284.83 309.21 288.81 299.95 292.24 290.4 296.49 281.14 301.73 272.29 307.04 263.26 313.54 254.74 321.15 246.96 328.97 239.27 337.78 232.55 347.39 227.09 357.07 222.12 367.39 218.69 378.18 217.06" stroke-dasharray="0 0" transform="rotate(44.44, 400, 400)" opacity="0.44"></path><path d="M381.8 227.67C391.97 226.88 402.42 227.88 413.13 230.53 423.97 233.84 435.27 238.65 447.05 244.73 459.17 251.24 471.92 258.82 485.14 267.23 498.56 275.82 512.11 285.07 525.2 294.78 537.5 304.49 548.28 314.59 556.63 324.92 562.71 335.19 565.4 345.71 564.34 356.36 560.94 366.96 554.56 377.73 546.1 388.6 538.14 399.45 530.67 410.42 525.02 421.39 523.23 432.37 524.39 442.8 527.97 452.59 534.21 462.33 540.79 471.34 546.45 479.47 551.54 487.47 553.91 494.49 553.22 500.41 550.43 506.12 544.57 510.67 536.22 514.01 526.35 517.19 514.89 519.25 502.58 520.24 489.8 521.34 476.84 521.64 464.12 521.3 451.46 521.54 439.2 521.52 427.51 521.39 415.92 522.31 404.83 523.39 394.34 524.66 383.85 527.1 374.39 529.48 365.93 531.63 357.4 534.44 349.83 536.59 343.18 537.87 336.35 539.23 330.25 539.37 324.75 538.21 318.72 536.73 312.92 533.83 307.14 529.56 300.4 524.89 293.33 518.91 285.89 511.81 277.46 504.4 268.82 496.01 260.35 486.85 251.78 477.53 244.24 467.59 238.36 457.19 233.81 446.76 231.78 435.96 232.61 424.93 235.22 413.9 240.2 403.16 246.88 392.79 253.9 382.38 261.52 372.28 269.18 362.52 275.81 352.65 282 343.03 287.7 333.72 292.15 324.22 296.39 314.94 300.68 305.97 304.27 296.78 308.4 287.89 313.26 279.43 317.98 270.85 323.69 262.8 330.39 255.49 337.15 248.3 344.9 242.05 353.53 236.99 362.18 232.38 371.63 229.19 381.8 227.67" stroke-dasharray="1 9" transform="rotate(48.48, 400, 400)" opacity="0.18"></path><path d="M387.99 238.27C397.58 237.5 407.64 238.36 418.08 240.71 428.63 243.65 439.7 247.97 451.21 253.46 462.9 259.37 475.03 266.29 487.33 274 499.55 281.91 511.52 290.48 522.67 299.52 532.84 308.6 541.33 318.07 547.42 327.78 551.54 337.47 552.67 347.39 550.65 357.42 546.91 367.43 540.82 377.57 533.16 387.74 526.15 397.91 519.61 408.13 514.58 418.27 512.81 428.42 513.47 437.98 516.17 446.88 521.28 455.74 526.84 463.86 531.88 471.13 538.24 481.43 537.07 496.93 529.04 501.98 521.54 504.91 512.33 506.89 502.01 507.95 491.09 509.17 479.66 509.72 468.16 509.71 456.58 510.25 445.17 510.53 434.19 510.68 423.25 511.73 412.75 512.85 402.81 514.05 392.87 516.25 383.9 518.32 375.86 520.14 367.74 522.55 360.44 524.35 353.91 525.41 347.12 526.58 340.87 526.7 335.03 525.7 328.64 524.5 322.32 522.05 315.94 518.39 308.71 514.43 301.21 509.29 293.45 503.09 284.96 496.65 276.45 489.27 268.3 481.11 260.25 472.82 253.29 463.87 247.98 454.42 243.92 444.93 242.18 435 243.05 424.76 245.52 414.52 250.17 404.46 256.44 394.66 263.13 384.83 270.51 375.21 278.08 365.87 284.88 356.43 291.41 347.2 297.53 338.23 302.56 329.12 307.34 320.22 312.05 311.61 316 302.86 320.28 294.41 325.06 286.39 329.55 278.33 334.82 270.79 340.93 263.98 346.99 257.31 353.96 251.54 361.83 246.88 369.67 242.63 378.4 239.7 387.99 238.27" stroke-dasharray="7 10" transform="rotate(52.52, 400, 400)" opacity="0.95"></path><path d="M395.89 248.88C404.91 248.13 414.46 248.84 424.42 250.91 434.45 253.49 444.95 257.33 455.75 262.25 466.6 267.55 477.66 273.79 488.61 280.79 499.26 288 509.38 295.85 518.44 304.15 526.5 312.54 532.83 321.32 536.93 330.33 539.4 339.36 539.33 348.61 536.68 357.96 532.84 367.3 527.18 376.74 520.35 386.18 514.26 395.62 508.59 405.06 504.14 414.37 502.41 423.68 502.65 432.4 504.57 440.45 508.61 448.47 513.17 455.78 517.47 462.28 523.51 471.5 525.16 485.41 519.87 490.02 514.51 492.78 507.45 494.72 499.17 495.88 490.24 497.24 480.57 498.02 470.56 498.32 460.36 499.11 450.1 499.65 440.05 500.03 430 501.17 420.22 502.32 410.88 503.44 401.52 505.41 392.99 507.2 385.24 508.71 377.4 510.74 370.21 512.22 363.6 513.04 356.73 514.01 350.22 514.08 343.95 513.18 337.18 512.17 330.4 510.08 323.52 506.93 315.96 503.56 308.2 499.13 300.33 493.74 291.98 488.16 283.79 481.69 276.09 474.47 268.66 467.14 262.34 459.14 257.61 450.59 254.05 442.02 252.6 432.96 253.49 423.53 255.81 414.09 260.12 404.73 265.94 395.55 272.23 386.34 279.28 377.27 286.64 368.4 293.48 359.48 300.19 350.7 306.63 342.16 312.15 333.52 317.45 325.07 322.61 316.91 327.04 308.66 331.64 300.72 336.56 293.22 341.1 285.71 346.23 278.73 352.03 272.43 357.7 266.31 364.17 261.02 371.48 256.77 378.73 252.89 386.87 250.2 395.89 248.88" stroke-dasharray="2 9" transform="rotate(56.56, 400, 400)" opacity="0.52"></path><path d="M404.37 259.49C412.81 258.76 421.72 259.35 430.97 261.14 440.25 263.38 449.86 266.76 459.61 271.11 469.29 275.8 478.95 281.37 488.25 287.65 497.16 294.13 505.33 301.22 512.34 308.76 518.4 316.4 522.83 324.42 525.27 332.69 526.43 340.99 525.5 349.5 522.52 358.1 518.77 366.71 513.65 375.4 507.68 384.06 502.46 392.73 497.6 401.37 493.69 409.84 492.04 418.32 491.92 426.22 493.15 433.48 496.22 440.71 499.8 447.27 503.31 453.08 510.36 467.64 502.72 481.81 493.77 484.06 486.8 485.55 478.94 486.54 470.53 487.11 461.89 488.11 452.96 488.87 444 489.44 435.01 490.64 426.09 491.79 417.39 492.84 408.69 494.59 400.59 496.11 393.07 497.33 385.47 499.02 378.33 500.2 371.59 500.79 364.61 501.55 357.84 501.53 351.2 500.69 344.14 499.8 337.02 497.98 329.83 495.24 322.15 492.35 314.36 488.53 306.6 483.85 298.59 479.02 290.88 473.38 283.77 467.02 277.03 460.56 271.41 453.46 267.27 445.79 264.2 438.1 263.02 429.9 263.94 421.29 266.09 412.66 270.04 404.04 275.38 395.51 281.22 386.97 287.85 378.51 294.89 370.19 301.61 361.84 308.36 353.6 314.95 345.56 320.84 337.46 326.56 329.55 332.13 321.91 337.05 314.24 342.04 306.87 347.22 299.92 351.99 293.02 357.18 286.61 362.88 280.87 368.4 275.3 374.58 270.5 381.48 266.65 388.31 263.14 395.93 260.7 404.37 259.49" stroke-dasharray="1 1" transform="rotate(60.599999999999994, 400, 400)" opacity="0.44"></path><path d="M412.24 270.09C420.05 269.4 428.2 269.87 436.54 271.4 444.89 273.32 453.38 276.24 461.82 280.04 470.13 284.15 478.21 289.05 485.76 294.6 492.89 300.34 499.17 306.66 504.28 313.41 508.6 320.26 511.44 327.49 512.57 334.95 512.79 342.46 511.32 350.18 508.26 357.99 504.78 365.82 500.27 373.71 495.14 381.57 490.75 389.44 486.64 397.26 483.25 404.91 481.68 412.56 481.28 419.66 481.93 426.17 485.46 435.59 494 451.17 496.81 457.24 495.14 466.38 477.53 474.71 467.61 476.09 460.54 477.26 453.01 478.19 445.23 478.9 437.4 480.14 429.42 481.26 421.44 482.23 413.46 483.77 405.83 485.05 398.57 486.03 391.25 487.39 384.19 488.29 377.37 488.67 370.36 489.22 363.45 489.1 356.58 488.27 349.41 487.45 342.18 485.83 334.93 483.42 327.36 480.93 319.79 477.62 312.38 473.55 304.9 469.38 297.81 464.46 291.4 458.88 285.42 453.23 280.51 446.96 276.98 440.13 274.39 433.29 273.46 425.93 274.38 418.13 276.36 410.33 279.94 402.46 284.78 394.64 290.11 386.81 296.24 379 302.85 371.3 309.31 363.59 315.92 355.96 322.5 348.5 328.57 341.03 334.55 333.72 340.41 326.68 345.74 319.63 351.1 312.88 356.53 306.55 361.61 300.28 366.95 294.48 372.65 289.3 378.17 284.29 384.19 279.99 390.76 276.54 397.27 273.39 404.42 271.2 412.24 270.09" stroke-dasharray="2 6" transform="rotate(64.64, 400, 400)" opacity="0.51"></path><path d="M418.36 280.7C425.49 280.04 432.77 280.4 440.08 281.69 447.36 283.3 454.61 285.8 461.63 289.07 468.49 292.6 474.96 296.84 480.81 301.68 486.27 306.69 490.86 312.23 494.35 318.16 497.23 324.21 498.84 330.61 499.05 337.24 498.65 343.93 496.93 350.81 494.01 357.79 490.91 364.79 487.06 371.86 482.77 378.89 479.14 385.93 475.72 392.92 472.8 399.75 471.03 409.75 473.24 427.13 476.06 434.41 480.79 452.58 469.45 463.64 461.69 465.27 456.08 466.55 449.89 467.6 443.28 468.42 436.62 469.65 429.64 470.74 422.44 471.62 415.24 472.97 408.16 474.02 401.26 474.78 394.31 475.85 387.46 476.49 380.72 476.68 373.84 477.03 366.98 476.8 360.13 475.97 353.09 475.18 346.01 473.71 338.96 471.57 331.76 469.39 324.65 466.5 317.79 462.96 311 459.35 304.67 455.08 299.04 450.2 293.86 445.28 289.67 439.78 286.73 433.75 284.6 427.71 283.92 421.17 284.82 414.19 286.62 407.21 289.82 400.13 294.14 393.05 298.92 385.96 304.49 378.87 310.57 371.86 316.63 364.83 322.93 357.88 329.3 351.09 335.36 344.29 341.39 337.64 347.37 331.26 352.95 324.9 358.54 318.81 364.16 313.13 369.48 307.51 374.96 302.34 380.66 297.74 386.2 293.29 392.08 289.48 398.34 286.44 404.55 283.65 411.22 281.7 418.36 280.7" stroke-dasharray="11 11" transform="rotate(68.68, 400, 400)" opacity="0.60"></path><path d="M421.87 291.31C434.65 290.36 447.22 292.88 458.59 298.2 469.38 304.36 477.89 312.94 482.77 323.1 485.97 333.66 484.94 345.45 479.86 357.66 474.77 369.98 468.32 382.55 462.36 394.61 460.84 406.66 461.42 416.97 463.09 425.29 468.01 436.83 463.95 451.02 453.03 454.64 444.16 457.6 432.98 459.78 420.24 461.02 407.5 463.67 394.51 464.98 381.68 464.84 368.57 465.29 355.21 463.61 342.15 459.77 328.99 455.89 316.7 449.6 306.76 441.16 298.53 432.6 294.27 421.97 295.27 409.65 299.15 397.32 307.35 384.53 318.09 371.97 329.1 359.43 341.06 347.11 353 335.73 363.93 324.49 375.06 314.36 386.4 306.19 397.25 298.58 409.08 293.34 421.87 291.31" stroke-dasharray="4 7" transform="rotate(72.72, 400, 400)" opacity="0.86"></path><path d="M422.27 301.92C433.46 301.01 443.82 303.04 452.61 307.45 460.94 312.53 466.96 319.71 469.84 328.29 471.71 337.22 470.29 347.28 465.89 357.77 461.87 368.36 456.81 379.22 451.92 389.69 450.36 400.16 450.13 409.18 450.64 416.56 453.72 426.9 450.61 440.38 442.19 444.2 435.34 447.13 426.19 449.26 415.17 450.41 404.15 452.62 392.45 453.55 380.61 453.16 368.7 453.26 356.53 451.58 344.81 448.1 333.32 444.66 322.84 439.21 314.63 431.91 307.93 424.56 304.64 415.39 305.71 404.69 309.08 393.98 316.12 382.81 325.46 371.8 335.29 360.84 346.24 350.07 357.4 340.16 368.03 330.41 378.85 321.68 389.64 314.68 400.12 308.15 411.07 303.67 422.27 301.92" stroke-dasharray="4 5" transform="rotate(76.76, 400, 400)" opacity="0.70"></path><path d="M419.5 312.52C429.04 311.67 437.34 313.26 443.94 316.82 450.24 320.88 454.4 326.73 456 333.8 457.09 341.14 455.72 349.49 452.2 358.27 449.22 367.14 445.39 376.31 441.47 385.22 439.96 394.13 439.14 401.91 438.73 408.37 440.07 417.52 436.72 430.11 430.01 433.96 424.66 436.75 417.23 438.77 407.94 439.8 398.65 441.61 388.51 442.21 378.13 441.64 367.79 441.47 357.27 439.8 347.31 436.66 337.72 433.6 329.19 428.89 322.7 422.67 317.48 416.42 315.05 408.63 316.15 399.53 319 390.42 324.88 380.9 332.75 371.51 341.19 362.16 350.81 353.02 360.79 344.63 370.57 336.39 380.59 329.06 390.45 323.22 400.15 317.75 409.96 314 419.5 312.52" stroke-dasharray="10 6" transform="rotate(80.80000000000001, 400, 400)" opacity="0.46"></path><path d="M413.96 323.13C425.05 322.96 439.32 331.76 441.69 339.67 442.44 345.5 441.41 352.19 438.84 359.31 436.81 366.5 434.07 374 431.03 381.38 429.03 392.03 427.25 408.78 425.53 414.8 423.06 420.21 410.16 427.38 399.58 429.2 392 430.63 383.62 430.97 375.03 430.29 366.54 429.9 357.98 428.29 350.02 425.5 342.46 422.81 335.89 418.8 331.06 413.58 327.18 408.37 325.52 401.92 326.6 394.39 328.93 386.86 333.66 378.99 340.04 371.25 346.95 363.56 354.97 356.05 363.43 349.2 371.91 342.48 380.66 336.52 389.21 331.81 397.72 327.38 406.12 324.34 413.96 323.13" stroke-dasharray="4 4" transform="rotate(84.84, 400, 400)" opacity="0.10"></path><path d="M406.44 333.74C418.78 332.72 426.01 337.58 427.41 345.98 428.85 354.91 426.03 366.58 420.59 378.34 419.2 390.1 416.96 399.64 413.08 405.96 410.38 412.83 403.18 417.43 391.28 418.59 379.38 421.08 365.42 419.59 353.34 414.72 342.59 410.14 335.92 401.45 337.04 389.49 341.44 377.52 352.45 364.71 365.69 353.95 379.4 343.6 394.1 335.92 406.44 333.74" stroke-dasharray="4 11" transform="rotate(88.88, 400, 400)" opacity="0.53"></path><path d="M398 344.34C409.7 345.12 414.48 363.23 410.14 376.23 408.73 385.02 406 392.48 402.05 397.68 398.94 403.21 392.99 407 384.22 407.98 375.45 409.71 365.68 408.28 357.63 404.34 350.44 400.62 346.28 393.94 347.48 385.04 350.6 376.13 358.39 366.74 367.96 358.96 378.01 351.44 388.93 345.9 398 344.34" stroke-dasharray="2 10" transform="rotate(92.92, 400, 400)" opacity="0.14"></path><path d="M389.84 354.95C401.7 353.89 404.88 363.43 399.7 375.14 398.38 386.84 390.95 396.25 379.4 397.38 367.84 399.79 356.74 393.04 357.93 381.23 362.59 369.41 377.98 357.21 389.84 354.95" stroke-dasharray="9 8" transform="rotate(96.96, 400, 400)" opacity="0.09"></path></g></svg>