<svg xmlns="http://www.w3.org/2000/svg" version="1.1" xmlns:xlink="http://www.w3.org/1999/xlink" xmlns:svgjs="http://svgjs.dev/svgjs" viewBox="0 0 800 800"><circle r="14" cx="18" cy="445" fill="hsl(276, 75%, 70%)" opacity="0.68"></circle><circle r="11" cx="94" cy="651" fill="hsl(210, 75%, 70%)" opacity="0.44"></circle><circle r="6" cx="577" cy="709" fill="hsl(213, 75%, 70%)" opacity="0.51"></circle><circle r="10.5" cx="574" cy="742" fill="hsl(221, 75%, 70%)" opacity="0.35"></circle><circle r="11" cx="307" cy="247" fill="hsl(277, 75%, 70%)" opacity="0.41"></circle><circle r="8" cx="497" cy="315" fill="hsl(285, 75%, 70%)" opacity="0.64"></circle><circle r="10.5" cx="326" cy="90" fill="hsl(265, 75%, 70%)" opacity="0.55"></circle><circle r="9" cx="783" cy="619" fill="hsl(202, 75%, 70%)" opacity="0.77"></circle><circle r="10.5" cx="223" cy="515" fill="hsl(193, 75%, 70%)" opacity="0.65"></circle><circle r="14" cx="331" cy="431" fill="hsl(301, 75%, 70%)" opacity="0.22"></circle><circle r="11" cx="395" cy="758" fill="hsl(334, 75%, 70%)" opacity="0.72"></circle><circle r="9" cx="786" cy="104" fill="hsl(290, 75%, 70%)" opacity="0.94"></circle><circle r="13" cx="20" cy="64" fill="hsl(244, 75%, 70%)" opacity="0.36"></circle><circle r="19.5" cx="386" cy="564" fill="hsl(331, 75%, 70%)" opacity="0.87"></circle><circle r="8" cx="633" cy="281" fill="hsl(197, 75%, 70%)" opacity="0.94"></circle><circle r="16.5" cx="429" cy="214" fill="hsl(329, 75%, 70%)" opacity="0.44"></circle><circle r="5.5" cx="511" cy="36" fill="hsl(142, 75%, 70%)" opacity="0.34"></circle><circle r="12" cx="589" cy="322" fill="hsl(207, 75%, 70%)" opacity="0.30"></circle><circle r="11.5" cx="335" cy="50" fill="hsl(252, 75%, 70%)" opacity="0.46"></circle><circle r="7.5" cx="210" cy="384" fill="hsl(186, 75%, 70%)" opacity="0.85"></circle><circle r="10" cx="575" cy="520" fill="hsl(213, 75%, 70%)" opacity="0.17"></circle><circle r="7.5" cx="356" cy="24" fill="hsl(251, 75%, 70%)" opacity="0.55"></circle><circle r="8.5" cx="225" cy="18" fill="hsl(144, 75%, 70%)" opacity="0.61"></circle><circle r="7.5" cx="204" cy="615" fill="hsl(186, 75%, 70%)" opacity="0.11"></circle><circle r="7.5" cx="647" cy="755" fill="hsl(197, 75%, 70%)" opacity="0.12"></circle><circle r="7.5" cx="625" cy="39" fill="hsl(188, 75%, 70%)" opacity="0.82"></circle><circle r="13.5" cx="553" cy="251" fill="hsl(229, 75%, 70%)" opacity="0.50"></circle><circle r="15.5" cx="466" cy="336" fill="hsl(306, 75%, 70%)" opacity="0.80"></circle><circle r="8.5" cx="441" cy="587" fill="hsl(323, 75%, 70%)" opacity="0.21"></circle><circle r="3.5" cx="793" cy="404" fill="hsl(202, 75%, 70%)" opacity="0.22"></circle><circle r="13" cx="290" cy="566" fill="hsl(265, 75%, 70%)" opacity="0.83"></circle><circle r="9" cx="150" cy="393" fill="hsl(176, 75%, 70%)" opacity="0.64"></circle><circle r="9.5" cx="699" cy="741" fill="hsl(200, 75%, 70%)" opacity="0.37"></circle><circle r="7" cx="262" cy="33" fill="hsl(194, 75%, 70%)" opacity="0.92"></circle><circle r="18" cx="450" cy="547" fill="hsl(323, 75%, 70%)" opacity="0.78"></circle><circle r="10.5" cx="123" cy="477" fill="hsl(191, 75%, 70%)" opacity="0.92"></circle><circle r="9.5" cx="641" cy="529" fill="hsl(197, 75%, 70%)" opacity="0.80"></circle><circle r="12" cx="493" cy="281" fill="hsl(285, 75%, 70%)" opacity="0.93"></circle><circle r="11.5" cx="186" cy="153" fill="hsl(181, 75%, 70%)" opacity="0.41"></circle><circle r="11.5" cx="377" cy="68" fill="hsl(251, 75%, 70%)" opacity="0.80"></circle><circle r="9.5" cx="773" cy="527" fill="hsl(202, 75%, 70%)" opacity="0.89"></circle><circle r="12.5" cx="312" cy="665" fill="hsl(277, 75%, 70%)" opacity="0.73"></circle><circle r="11" cx="150" cy="714" fill="hsl(176, 75%, 70%)" opacity="0.35"></circle><circle r="6.5" cx="240" cy="54" fill="hsl(183, 75%, 70%)" opacity="0.67"></circle><circle r="11" cx="32" cy="491" fill="hsl(267, 75%, 70%)" opacity="0.89"></circle><circle r="11" cx="682" cy="508" fill="hsl(199, 75%, 70%)" opacity="0.33"></circle><circle r="12.5" cx="53" cy="305" fill="hsl(245, 75%, 70%)" opacity="0.19"></circle><circle r="9.5" cx="156" cy="598" fill="hsl(176, 75%, 70%)" opacity="0.11"></circle><circle r="9" cx="224" cy="135" fill="hsl(191, 75%, 70%)" opacity="0.77"></circle><circle r="10.5" cx="248" cy="395" fill="hsl(213, 75%, 70%)" opacity="0.22"></circle><circle r="9.5" cx="164" cy="510" fill="hsl(175, 75%, 70%)" opacity="0.54"></circle><circle r="8.5" cx="673" cy="459" fill="hsl(198, 75%, 70%)" opacity="0.70"></circle><circle r="8" cx="564" cy="354" fill="hsl(221, 75%, 70%)" opacity="0.46"></circle><circle r="11" cx="86" cy="204" fill="hsl(221, 75%, 70%)" opacity="0.74"></circle><circle r="7.5" cx="556" cy="381" fill="hsl(229, 75%, 70%)" opacity="0.92"></circle><circle r="15.5" cx="431" cy="428" fill="hsl(329, 75%, 70%)" opacity="0.44"></circle><circle r="9" cx="619" cy="466" fill="hsl(199, 75%, 70%)" opacity="1.00"></circle><circle r="6.5" cx="770" cy="418" fill="hsl(202, 75%, 70%)" opacity="0.80"></circle><circle r="13.5" cx="353" cy="753" fill="hsl(320, 75%, 70%)" opacity="0.61"></circle><circle r="5.5" cx="512" cy="109" fill="hsl(200, 75%, 70%)" opacity="0.28"></circle><circle r="15.5" cx="291" cy="340" fill="hsl(265, 75%, 70%)" opacity="0.21"></circle><circle r="10.5" cx="730" cy="710" fill="hsl(202, 75%, 70%)" opacity="0.62"></circle><circle r="12" cx="379" cy="218" fill="hsl(331, 75%, 70%)" opacity="0.69"></circle><circle r="9.5" cx="686" cy="174" fill="hsl(226, 75%, 70%)" opacity="0.38"></circle><circle r="10" cx="117" cy="683" fill="hsl(191, 75%, 70%)" opacity="0.67"></circle><circle r="8.5" cx="574" cy="674" fill="hsl(221, 75%, 70%)" opacity="0.46"></circle><circle r="10.5" cx="444" cy="614" fill="hsl(323, 75%, 70%)" opacity="0.73"></circle><circle r="7.5" cx="759" cy="601" fill="hsl(202, 75%, 70%)" opacity="0.80"></circle><circle r="17.5" cx="347" cy="325" fill="hsl(311, 75%, 70%)" opacity="0.29"></circle><circle r="10.5" cx="369" cy="408" fill="hsl(326, 75%, 70%)" opacity="0.91"></circle><circle r="10.5" cx="684" cy="695" fill="hsl(199, 75%, 70%)" opacity="0.72"></circle><circle r="12.5" cx="21" cy="718" fill="hsl(276, 75%, 70%)" opacity="0.62"></circle><circle r="8.5" cx="115" cy="400" fill="hsl(191, 75%, 70%)" opacity="0.45"></circle><circle r="9" cx="15" cy="772" fill="hsl(276, 75%, 70%)" opacity="0.43"></circle><circle r="16.5" cx="474" cy="412" fill="hsl(306, 75%, 70%)" opacity="0.26"></circle><circle r="7.5" cx="654" cy="785" fill="hsl(197, 75%, 70%)" opacity="0.57"></circle><circle r="10" cx="117" cy="437" fill="hsl(191, 75%, 70%)" opacity="0.74"></circle><circle r="15" cx="395" cy="662" fill="hsl(334, 75%, 70%)" opacity="0.18"></circle><circle r="10.5" cx="367" cy="785" fill="hsl(326, 75%, 70%)" opacity="0.16"></circle><circle r="9.5" cx="723" cy="552" fill="hsl(201, 75%, 70%)" opacity="0.55"></circle><circle r="12.5" cx="270" cy="469" fill="hsl(238, 75%, 70%)" opacity="0.41"></circle><circle r="8" cx="443" cy="56" fill="hsl(201, 75%, 70%)" opacity="0.87"></circle><circle r="5" cx="500" cy="11" fill="hsl(137, 75%, 70%)" opacity="0.38"></circle><circle r="10" cx="770" cy="734" fill="hsl(202, 75%, 70%)" opacity="0.25"></circle><circle r="10" cx="246" cy="258" fill="hsl(213, 75%, 70%)" opacity="0.56"></circle><circle r="12.5" cx="46" cy="189" fill="hsl(256, 75%, 70%)" opacity="0.13"></circle><circle r="9.5" cx="169" cy="308" fill="hsl(175, 75%, 70%)" opacity="0.98"></circle><circle r="8.5" cx="185" cy="444" fill="hsl(176, 75%, 70%)" opacity="0.90"></circle><circle r="8.5" cx="620" cy="728" fill="hsl(199, 75%, 70%)" opacity="0.54"></circle><circle r="9.5" cx="275" cy="272" fill="hsl(251, 75%, 70%)" opacity="0.63"></circle><circle r="11" cx="293" cy="63" fill="hsl(236, 75%, 70%)" opacity="0.79"></circle><circle r="6" cx="494" cy="67" fill="hsl(173, 75%, 70%)" opacity="0.26"></circle><circle r="13.5" cx="609" cy="421" fill="hsl(202, 75%, 70%)" opacity="0.14"></circle><circle r="11" cx="613" cy="74" fill="hsl(207, 75%, 70%)" opacity="0.60"></circle><circle r="8" cx="33" cy="681" fill="hsl(267, 75%, 70%)" opacity="0.17"></circle><circle r="18" cx="402" cy="508" fill="hsl(334, 75%, 70%)" opacity="0.19"></circle><circle r="12" cx="227" cy="312" fill="hsl(203, 75%, 70%)" opacity="0.46"></circle><circle r="12.5" cx="34" cy="528" fill="hsl(267, 75%, 70%)" opacity="0.16"></circle><circle r="18.5" cx="338" cy="606" fill="hsl(311, 75%, 70%)" opacity="0.48"></circle><circle r="10.5" cx="557" cy="643" fill="hsl(229, 75%, 70%)" opacity="0.68"></circle><circle r="12.5" cx="674" cy="248" fill="hsl(198, 75%, 70%)" opacity="0.74"></circle><circle r="10" cx="780" cy="564" fill="hsl(202, 75%, 70%)" opacity="0.11"></circle><circle r="9.5" cx="578" cy="782" fill="hsl(213, 75%, 70%)" opacity="0.36"></circle><circle r="11.5" cx="779" cy="186" fill="hsl(219, 75%, 70%)" opacity="0.52"></circle><circle r="12" cx="368" cy="376" fill="hsl(326, 75%, 70%)" opacity="0.35"></circle><circle r="14.5" cx="546" cy="477" fill="hsl(239, 75%, 70%)" opacity="0.79"></circle><circle r="8.5" cx="172" cy="561" fill="hsl(175, 75%, 70%)" opacity="0.17"></circle><circle r="4.5" cx="368" cy="8" fill="hsl(248, 75%, 70%)" opacity="0.24"></circle><circle r="8" cx="255" cy="786" fill="hsl(225, 75%, 70%)" opacity="0.16"></circle><circle r="7.5" cx="202" cy="585" fill="hsl(186, 75%, 70%)" opacity="0.54"></circle><circle r="14" cx="713" cy="301" fill="hsl(201, 75%, 70%)" opacity="0.28"></circle><circle r="9" cx="205" cy="59" fill="hsl(143, 75%, 70%)" opacity="0.84"></circle><circle r="10" cx="756" cy="15" fill="hsl(292, 75%, 70%)" opacity="0.62"></circle><circle r="14.5" cx="68" cy="455" fill="hsl(233, 75%, 70%)" opacity="0.91"></circle><circle r="10.5" cx="430" cy="153" fill="hsl(299, 75%, 70%)" opacity="0.64"></circle><circle r="11" cx="238" cy="353" fill="hsl(213, 75%, 70%)" opacity="0.14"></circle><circle r="8" cx="602" cy="702" fill="hsl(202, 75%, 70%)" opacity="0.17"></circle><circle r="9" cx="459" cy="178" fill="hsl(306, 75%, 70%)" opacity="0.99"></circle><circle r="8.5" cx="616" cy="353" fill="hsl(199, 75%, 70%)" opacity="0.45"></circle><circle r="8.5" cx="254" cy="663" fill="hsl(225, 75%, 70%)" opacity="0.12"></circle><circle r="12" cx="680" cy="568" fill="hsl(199, 75%, 70%)" opacity="0.14"></circle><circle r="10" cx="198" cy="479" fill="hsl(180, 75%, 70%)" opacity="0.70"></circle><circle r="19.5" cx="433" cy="374" fill="hsl(329, 75%, 70%)" opacity="0.19"></circle><circle r="11.5" cx="719" cy="401" fill="hsl(201, 75%, 70%)" opacity="0.33"></circle><circle r="13.5" cx="483" cy="636" fill="hsl(296, 75%, 70%)" opacity="0.76"></circle><circle r="5.5" cx="8" cy="693" fill="hsl(285, 75%, 70%)" opacity="0.59"></circle><circle r="8" cx="214" cy="551" fill="hsl(193, 75%, 70%)" opacity="0.42"></circle><circle r="9.5" cx="635" cy="601" fill="hsl(197, 75%, 70%)" opacity="0.65"></circle><circle r="7.5" cx="60" cy="700" fill="hsl(245, 75%, 70%)" opacity="0.83"></circle><circle r="13" cx="400" cy="187" fill="hsl(327, 75%, 70%)" opacity="0.75"></circle><circle r="6.5" cx="129" cy="787" fill="hsl(184, 75%, 70%)" opacity="0.55"></circle><circle r="7.5" cx="642" cy="495" fill="hsl(197, 75%, 70%)" opacity="0.80"></circle><circle r="8" cx="164" cy="46" fill="hsl(108, 75%, 70%)" opacity="0.38"></circle><circle r="9" cx="211" cy="261" fill="hsl(186, 75%, 70%)" opacity="0.34"></circle><circle r="10.5" cx="635" cy="381" fill="hsl(197, 75%, 70%)" opacity="0.69"></circle><circle r="9" cx="767" cy="653" fill="hsl(202, 75%, 70%)" opacity="0.30"></circle><circle r="15" cx="492" cy="500" fill="hsl(285, 75%, 70%)" opacity="0.92"></circle><circle r="6.5" cx="195" cy="414" fill="hsl(180, 75%, 70%)" opacity="0.24"></circle><circle r="17.5" cx="20" cy="151" fill="hsl(286, 75%, 70%)" opacity="0.17"></circle><circle r="14" cx="354" cy="652" fill="hsl(320, 75%, 70%)" opacity="0.82"></circle><circle r="9.5" cx="525" cy="695" fill="hsl(250, 75%, 70%)" opacity="0.49"></circle><circle r="10.5" cx="189" cy="102" fill="hsl(164, 75%, 70%)" opacity="0.72"></circle><circle r="15.5" cx="290" cy="403" fill="hsl(265, 75%, 70%)" opacity="0.47"></circle><circle r="13" cx="24" cy="637" fill="hsl(276, 75%, 70%)" opacity="0.51"></circle><circle r="11.5" cx="588" cy="278" fill="hsl(207, 75%, 70%)" opacity="0.83"></circle><circle r="13.5" cx="723" cy="229" fill="hsl(201, 75%, 70%)" opacity="0.81"></circle><circle r="9.5" cx="614" cy="770" fill="hsl(199, 75%, 70%)" opacity="0.25"></circle><circle r="11.5" cx="406" cy="463" fill="hsl(334, 75%, 70%)" opacity="0.87"></circle><circle r="10" cx="426" cy="116" fill="hsl(262, 75%, 70%)" opacity="0.10"></circle><circle r="8.5" cx="757" cy="689" fill="hsl(202, 75%, 70%)" opacity="0.68"></circle><circle r="19" cx="392" cy="710" fill="hsl(334, 75%, 70%)" opacity="0.41"></circle><circle r="11" cx="296" cy="19" fill="hsl(235, 75%, 70%)" opacity="0.83"></circle><circle r="10" cx="707" cy="777" fill="hsl(200, 75%, 70%)" opacity="0.76"></circle><circle r="6" cx="489" cy="95" fill="hsl(195, 75%, 70%)" opacity="0.82"></circle><circle r="11" cx="118" cy="611" fill="hsl(191, 75%, 70%)" opacity="0.52"></circle><circle r="6" cx="223" cy="422" fill="hsl(193, 75%, 70%)" opacity="0.53"></circle><circle r="11" cx="478" cy="202" fill="hsl(296, 75%, 70%)" opacity="0.63"></circle><circle r="7.5" cx="249" cy="706" fill="hsl(213, 75%, 70%)" opacity="0.84"></circle><circle r="9.5" cx="607" cy="636" fill="hsl(202, 75%, 70%)" opacity="0.62"></circle><circle r="8" cx="762" cy="390" fill="hsl(202, 75%, 70%)" opacity="0.29"></circle><circle r="13" cx="504" cy="448" fill="hsl(273, 75%, 70%)" opacity="0.55"></circle><circle r="11" cx="655" cy="641" fill="hsl(197, 75%, 70%)" opacity="0.69"></circle><circle r="12.5" cx="743" cy="158" fill="hsl(249, 75%, 70%)" opacity="0.55"></circle><circle r="11.5" cx="228" cy="747" fill="hsl(203, 75%, 70%)" opacity="0.56"></circle><circle r="8" cx="310" cy="699" fill="hsl(277, 75%, 70%)" opacity="0.42"></circle><circle r="8" cx="416" cy="589" fill="hsl(333, 75%, 70%)" opacity="0.26"></circle><circle r="6.5" cx="641" cy="308" fill="hsl(197, 75%, 70%)" opacity="0.30"></circle><circle r="14" cx="464" cy="465" fill="hsl(306, 75%, 70%)" opacity="0.32"></circle><circle r="8" cx="552" cy="35" fill="hsl(136, 75%, 70%)" opacity="0.41"></circle><circle r="13" cx="322" cy="128" fill="hsl(276, 75%, 70%)" opacity="0.45"></circle><circle r="13" cx="53" cy="771" fill="hsl(245, 75%, 70%)" opacity="0.59"></circle><circle r="9.5" cx="514" cy="602" fill="hsl(262, 75%, 70%)" opacity="0.58"></circle><circle r="12.5" cx="191" cy="216" fill="hsl(180, 75%, 70%)" opacity="0.61"></circle><circle r="9" cx="707" cy="440" fill="hsl(200, 75%, 70%)" opacity="0.84"></circle><circle r="7.5" cx="122" cy="757" fill="hsl(191, 75%, 70%)" opacity="0.80"></circle><circle r="5.5" cx="394" cy="16" fill="hsl(230, 75%, 70%)" opacity="0.31"></circle><circle r="14.5" cx="469" cy="693" fill="hsl(306, 75%, 70%)" opacity="0.49"></circle><circle r="8" cx="466" cy="79" fill="hsl(199, 75%, 70%)" opacity="0.67"></circle><circle r="11" cx="614" cy="239" fill="hsl(199, 75%, 70%)" opacity="0.40"></circle><circle r="13" cx="464" cy="781" fill="hsl(306, 75%, 70%)" opacity="0.28"></circle><circle r="10.5" cx="66" cy="731" fill="hsl(233, 75%, 70%)" opacity="0.71"></circle><circle r="11.5" cx="17" cy="239" fill="hsl(276, 75%, 70%)" opacity="0.99"></circle><circle r="7.5" cx="756" cy="73" fill="hsl(299, 75%, 70%)" opacity="0.46"></circle><circle r="7.5" cx="69" cy="674" fill="hsl(233, 75%, 70%)" opacity="0.73"></circle><circle r="10" cx="409" cy="57" fill="hsl(230, 75%, 70%)" opacity="0.27"></circle><circle r="7.5" cx="719" cy="189" fill="hsl(201, 75%, 70%)" opacity="0.49"></circle><circle r="7" cx="256" cy="75" fill="hsl(200, 75%, 70%)" opacity="0.60"></circle><circle r="12" cx="714" cy="659" fill="hsl(201, 75%, 70%)" opacity="0.25"></circle><circle r="11.5" cx="211" cy="698" fill="hsl(186, 75%, 70%)" opacity="0.42"></circle><circle r="11.5" cx="394" cy="148" fill="hsl(301, 75%, 70%)" opacity="0.48"></circle><circle r="10" cx="726" cy="515" fill="hsl(202, 75%, 70%)" opacity="0.82"></circle><circle r="12.5" cx="342" cy="273" fill="hsl(311, 75%, 70%)" opacity="0.93"></circle><circle r="12.5" cx="690" cy="617" fill="hsl(200, 75%, 70%)" opacity="0.74"></circle><circle r="12.5" cx="183" cy="761" fill="hsl(176, 75%, 70%)" opacity="0.34"></circle><circle r="8" cx="228" cy="92" fill="hsl(185, 75%, 70%)" opacity="0.66"></circle><circle r="15" cx="235" cy="191" fill="hsl(203, 75%, 70%)" opacity="0.73"></circle><circle r="10" cx="290" cy="734" fill="hsl(265, 75%, 70%)" opacity="0.99"></circle><circle r="13.5" cx="53" cy="96" fill="hsl(220, 75%, 70%)" opacity="0.75"></circle><circle r="10" cx="142" cy="202" fill="hsl(179, 75%, 70%)" opacity="0.16"></circle><circle r="8.5" cx="729" cy="596" fill="hsl(202, 75%, 70%)" opacity="0.14"></circle><circle r="8" cx="785" cy="340" fill="hsl(202, 75%, 70%)" opacity="0.41"></circle><circle r="8" cx="106" cy="316" fill="hsl(200, 75%, 70%)" opacity="0.65"></circle><circle r="10" cx="770" cy="489" fill="hsl(202, 75%, 70%)" opacity="0.51"></circle><circle r="7.5" cx="284" cy="657" fill="hsl(251, 75%, 70%)" opacity="0.55"></circle><circle r="8.5" cx="76" cy="55" fill="hsl(151, 75%, 70%)" opacity="0.97"></circle><circle r="7.5" cx="152" cy="160" fill="hsl(180, 75%, 70%)" opacity="0.29"></circle><circle r="11" cx="383" cy="438" fill="hsl(331, 75%, 70%)" opacity="0.45"></circle><circle r="8" cx="549" cy="602" fill="hsl(239, 75%, 70%)" opacity="0.95"></circle><circle r="8" cx="34" cy="17" fill="hsl(163, 75%, 70%)" opacity="0.16"></circle><circle r="8" cx="499" cy="130" fill="hsl(232, 75%, 70%)" opacity="0.15"></circle><circle r="15" cx="437" cy="657" fill="hsl(329, 75%, 70%)" opacity="0.13"></circle><circle r="11.5" cx="125" cy="244" fill="hsl(184, 75%, 70%)" opacity="0.60"></circle><circle r="9.5" cx="464" cy="149" fill="hsl(262, 75%, 70%)" opacity="0.20"></circle><circle r="14" cx="509" cy="543" fill="hsl(273, 75%, 70%)" opacity="0.91"></circle><circle r="4.5" cx="144" cy="536" fill="hsl(179, 75%, 70%)" opacity="0.69"></circle><circle r="13.5" cx="712" cy="88" fill="hsl(281, 75%, 70%)" opacity="0.69"></circle><circle r="10" cx="124" cy="292" fill="hsl(191, 75%, 70%)" opacity="0.92"></circle><circle r="9" cx="268" cy="754" fill="hsl(238, 75%, 70%)" opacity="0.81"></circle><circle r="7" cx="10" cy="669" fill="hsl(285, 75%, 70%)" opacity="0.17"></circle><circle r="12.5" cx="582" cy="597" fill="hsl(213, 75%, 70%)" opacity="0.16"></circle><circle r="10" cx="17" cy="298" fill="hsl(276, 75%, 70%)" opacity="0.14"></circle><circle r="9" cx="502" cy="782" fill="hsl(273, 75%, 70%)" opacity="0.96"></circle><circle r="9" cx="550" cy="709" fill="hsl(239, 75%, 70%)" opacity="0.35"></circle><circle r="13" cx="325" cy="373" fill="hsl(290, 75%, 70%)" opacity="0.76"></circle><circle r="16" cx="506" cy="374" fill="hsl(273, 75%, 70%)" opacity="0.25"></circle><circle r="8.5" cx="100" cy="735" fill="hsl(210, 75%, 70%)" opacity="0.59"></circle><circle r="11.5" cx="669" cy="330" fill="hsl(198, 75%, 70%)" opacity="0.64"></circle><circle r="9.5" cx="169" cy="673" fill="hsl(175, 75%, 70%)" opacity="0.76"></circle><circle r="11.5" cx="262" cy="136" fill="hsl(223, 75%, 70%)" opacity="0.88"></circle><circle r="16" cx="358" cy="490" fill="hsl(320, 75%, 70%)" opacity="0.95"></circle><circle r="15" cx="528" cy="759" fill="hsl(250, 75%, 70%)" opacity="0.52"></circle><circle r="10.5" cx="114" cy="363" fill="hsl(191, 75%, 70%)" opacity="0.38"></circle><circle r="15" cx="513" cy="224" fill="hsl(262, 75%, 70%)" opacity="0.33"></circle><circle r="9" cx="563" cy="551" fill="hsl(221, 75%, 70%)" opacity="0.47"></circle><circle r="14.5" cx="551" cy="186" fill="hsl(227, 75%, 70%)" opacity="0.95"></circle><circle r="14" cx="705" cy="23" fill="hsl(256, 75%, 70%)" opacity="0.33"></circle><circle r="5" cx="163" cy="13" fill="hsl(90, 75%, 70%)" opacity="0.14"></circle><circle r="9" cx="68" cy="371" fill="hsl(233, 75%, 70%)" opacity="0.70"></circle><circle r="8" cx="527" cy="629" fill="hsl(250, 75%, 70%)" opacity="0.71"></circle><circle r="11.5" cx="677" cy="388" fill="hsl(199, 75%, 70%)" opacity="0.88"></circle><circle r="9.5" cx="598" cy="492" fill="hsl(207, 75%, 70%)" opacity="0.61"></circle><circle r="11" cx="593" cy="153" fill="hsl(214, 75%, 70%)" opacity="0.33"></circle><circle r="10.5" cx="464" cy="114" fill="hsl(236, 75%, 70%)" opacity="0.48"></circle><circle r="7.5" cx="788" cy="33" fill="hsl(303, 75%, 70%)" opacity="0.20"></circle><circle r="6.5" cx="519" cy="324" fill="hsl(262, 75%, 70%)" opacity="0.47"></circle><circle r="8" cx="755" cy="49" fill="hsl(298, 75%, 70%)" opacity="0.51"></circle><circle r="11.5" cx="614" cy="196" fill="hsl(199, 75%, 70%)" opacity="0.92"></circle><circle r="7.5" cx="179" cy="640" fill="hsl(176, 75%, 70%)" opacity="0.55"></circle><circle r="8.5" cx="587" cy="23" fill="hsl(136, 75%, 70%)" opacity="0.28"></circle><circle r="12" cx="345" cy="697" fill="hsl(311, 75%, 70%)" opacity="0.53"></circle><circle r="13" cx="358" cy="163" fill="hsl(312, 75%, 70%)" opacity="0.91"></circle><circle r="12.5" cx="280" cy="220" fill="hsl(251, 75%, 70%)" opacity="0.21"></circle><circle r="9" cx="659" cy="725" fill="hsl(197, 75%, 70%)" opacity="0.23"></circle><circle r="10" cx="105" cy="26" fill="hsl(100, 75%, 70%)" opacity="0.61"></circle><circle r="10" cx="322" cy="725" fill="hsl(290, 75%, 70%)" opacity="0.35"></circle><circle r="13" cx="396" cy="620" fill="hsl(334, 75%, 70%)" opacity="0.49"></circle><circle r="8" cx="541" cy="100" fill="hsl(191, 75%, 70%)" opacity="0.88"></circle><circle r="9" cx="446" cy="20" fill="hsl(185, 75%, 70%)" opacity="0.34"></circle><circle r="8.5" cx="746" cy="779" fill="hsl(202, 75%, 70%)" opacity="0.38"></circle><circle r="11" cx="622" cy="564" fill="hsl(199, 75%, 70%)" opacity="0.12"></circle><circle r="15" cx="676" cy="61" fill="hsl(256, 75%, 70%)" opacity="0.81"></circle><circle r="10.5" cx="566" cy="419" fill="hsl(221, 75%, 70%)" opacity="0.38"></circle><circle r="6.5" cx="153" cy="268" fill="hsl(176, 75%, 70%)" opacity="0.85"></circle><circle r="9" cx="718" cy="475" fill="hsl(201, 75%, 70%)" opacity="0.79"></circle><circle r="14" cx="461" cy="735" fill="hsl(315, 75%, 70%)" opacity="0.90"></circle><circle r="15" cx="392" cy="299" fill="hsl(334, 75%, 70%)" opacity="0.30"></circle><circle r="19" cx="324" cy="534" fill="hsl(290, 75%, 70%)" opacity="0.85"></circle><circle r="7" cx="605" cy="667" fill="hsl(202, 75%, 70%)" opacity="0.67"></circle><circle r="15" cx="311" cy="477" fill="hsl(277, 75%, 70%)" opacity="0.75"></circle><circle r="12.5" cx="335" cy="204" fill="hsl(301, 75%, 70%)" opacity="0.43"></circle><circle r="9.5" cx="782" cy="774" fill="hsl(202, 75%, 70%)" opacity="0.37"></circle><circle r="14" cx="377" cy="112" fill="hsl(274, 75%, 70%)" opacity="0.78"></circle><circle r="15.5" cx="20" cy="363" fill="hsl(276, 75%, 70%)" opacity="0.30"></circle><circle r="10" cx="163" cy="348" fill="hsl(175, 75%, 70%)" opacity="0.14"></circle><circle r="14" cx="748" cy="113" fill="hsl(282, 75%, 70%)" opacity="0.86"></circle><circle r="12.5" cx="545" cy="310" fill="hsl(239, 75%, 70%)" opacity="0.85"></circle><circle r="7.5" cx="155" cy="439" fill="hsl(176, 75%, 70%)" opacity="0.61"></circle><circle r="6" cx="526" cy="61" fill="hsl(153, 75%, 70%)" opacity="0.51"></circle><circle r="9.5" cx="277" cy="100" fill="hsl(233, 75%, 70%)" opacity="0.70"></circle><circle r="14.5" cx="397" cy="347" fill="hsl(334, 75%, 70%)" opacity="0.98"></circle><circle r="8.5" cx="756" cy="359" fill="hsl(202, 75%, 70%)" opacity="0.41"></circle><circle r="13" cx="444" cy="497" fill="hsl(323, 75%, 70%)" opacity="0.30"></circle><circle r="8" cx="426" cy="86" fill="hsl(228, 75%, 70%)" opacity="0.11"></circle><circle r="13" cx="67" cy="613" fill="hsl(233, 75%, 70%)" opacity="0.24"></circle><circle r="16" cx="428" cy="277" fill="hsl(329, 75%, 70%)" opacity="0.57"></circle><circle r="8.5" cx="475" cy="41" fill="hsl(173, 75%, 70%)" opacity="0.25"></circle><circle r="15.5" cx="64" cy="248" fill="hsl(233, 75%, 70%)" opacity="0.63"></circle><circle r="10" cx="528" cy="420" fill="hsl(250, 75%, 70%)" opacity="0.71"></circle><circle r="8.5" cx="121" cy="514" fill="hsl(191, 75%, 70%)" opacity="0.61"></circle><circle r="13.5" cx="653" cy="102" fill="hsl(250, 75%, 70%)" opacity="0.79"></circle><circle r="9.5" cx="74" cy="339" fill="hsl(233, 75%, 70%)" opacity="0.27"></circle><circle r="8.5" cx="110" cy="177" fill="hsl(203, 75%, 70%)" opacity="0.80"></circle><circle r="10.5" cx="770" cy="450" fill="hsl(202, 75%, 70%)" opacity="0.12"></circle><circle r="8.5" cx="235" cy="450" fill="hsl(203, 75%, 70%)" opacity="0.22"></circle><circle r="11.5" cx="641" cy="684" fill="hsl(197, 75%, 70%)" opacity="0.75"></circle><circle r="8.5" cx="649" cy="17" fill="hsl(190, 75%, 70%)" opacity="0.92"></circle><circle r="5.5" cx="407" cy="792" fill="hsl(334, 75%, 70%)" opacity="0.61"></circle><circle r="7.5" cx="648" cy="443" fill="hsl(197, 75%, 70%)" opacity="0.74"></circle><circle r="11.5" cx="96" cy="116" fill="hsl(200, 75%, 70%)" opacity="0.11"></circle><circle r="12" cx="284" cy="173" fill="hsl(254, 75%, 70%)" opacity="0.67"></circle><circle r="11" cx="361" cy="245" fill="hsl(320, 75%, 70%)" opacity="0.11"></circle><circle r="11" cx="318" cy="175" fill="hsl(288, 75%, 70%)" opacity="0.17"></circle><circle r="13.5" cx="633" cy="144" fill="hsl(227, 75%, 70%)" opacity="0.22"></circle><circle r="7" cx="787" cy="691" fill="hsl(202, 75%, 70%)" opacity="0.12"></circle><circle r="8.5" cx="122" cy="143" fill="hsl(192, 75%, 70%)" opacity="0.56"></circle><circle r="10.5" cx="684" cy="137" fill="hsl(256, 75%, 70%)" opacity="0.59"></circle><circle r="9.5" cx="83" cy="409" fill="hsl(221, 75%, 70%)" opacity="0.68"></circle><circle r="12.5" cx="302" cy="297" fill="hsl(277, 75%, 70%)" opacity="0.87"></circle><circle r="10" cx="233" cy="639" fill="hsl(203, 75%, 70%)" opacity="0.70"></circle><circle r="10.5" cx="511" cy="663" fill="hsl(273, 75%, 70%)" opacity="0.74"></circle><circle r="13" cx="427" cy="764" fill="hsl(329, 75%, 70%)" opacity="0.35"></circle><circle r="10.5" cx="276" cy="698" fill="hsl(251, 75%, 70%)" opacity="0.99"></circle><circle r="6.5" cx="416" cy="19" fill="hsl(209, 75%, 70%)" opacity="0.51"></circle><circle r="16.5" cx="33" cy="576" fill="hsl(267, 75%, 70%)" opacity="0.83"></circle><circle r="13.5" cx="316" cy="772" fill="hsl(290, 75%, 70%)" opacity="0.70"></circle><circle r="10" cx="534" cy="572" fill="hsl(250, 75%, 70%)" opacity="0.98"></circle><circle r="10" cx="580" cy="96" fill="hsl(194, 75%, 70%)" opacity="0.69"></circle><circle r="10" cx="69" cy="147" fill="hsl(235, 75%, 70%)" opacity="0.68"></circle><circle r="8" cx="133" cy="561" fill="hsl(184, 75%, 70%)" opacity="0.18"></circle><circle r="14" cx="481" cy="588" fill="hsl(296, 75%, 70%)" opacity="0.83"></circle><circle r="6" cx="180" cy="269" fill="hsl(176, 75%, 70%)" opacity="0.63"></circle><circle r="13" cx="88" cy="535" fill="hsl(210, 75%, 70%)" opacity="0.85"></circle><circle r="9.5" cx="729" cy="342" fill="hsl(202, 75%, 70%)" opacity="0.72"></circle><circle r="10.5" cx="557" cy="136" fill="hsl(207, 75%, 70%)" opacity="0.87"></circle><circle r="13" cx="138" cy="90" fill="hsl(149, 75%, 70%)" opacity="0.27"></circle><circle r="13" cx="38" cy="405" fill="hsl(256, 75%, 70%)" opacity="0.92"></circle><circle r="6.5" cx="185" cy="378" fill="hsl(176, 75%, 70%)" opacity="0.70"></circle><circle r="13" cx="280" cy="618" fill="hsl(251, 75%, 70%)" opacity="0.16"></circle><circle r="10" cx="248" cy="571" fill="hsl(213, 75%, 70%)" opacity="0.71"></circle><circle r="15" cx="771" cy="274" fill="hsl(202, 75%, 70%)" opacity="0.15"></circle><circle r="11.5" cx="510" cy="162" fill="hsl(246, 75%, 70%)" opacity="0.23"></circle><circle r="5" cx="518" cy="84" fill="hsl(174, 75%, 70%)" opacity="0.35"></circle><circle r="16" cx="463" cy="249" fill="hsl(306, 75%, 70%)" opacity="0.84"></circle></svg>