<svg xmlns="http://www.w3.org/2000/svg" version="1.1" xmlns:xlink="http://www.w3.org/1999/xlink" xmlns:svgjs="http://svgjs.dev/svgjs" viewBox="0 0 800 800"><defs><linearGradient x1="50%" y1="0%" x2="50%" y2="100%" id="ssscribble-grad"><stop stop-color="hsl(206, 75%, 49%)" stop-opacity="1" offset="0%"></stop><stop stop-color="hsl(331, 90%, 56%)" stop-opacity="1" offset="100%"></stop></linearGradient></defs><g fill="none" stroke-width="1.5" stroke="url(#ssscribble-grad)" stroke-linecap="round"><path d="M960.89 534.08C1058.1 566.94 1098.41 580.47 1074.39 573.23 996.09 563.3 883.39 530.96 765.08 482.81 663.02 447.39 596.01 424.96 568.99 443.13 581.57 516.58 620.9 646.57 671.63 809.49 730.64 944.11 778.48 1003.8 808.61 948.19 827.24 811.3 826.08 664 809.35 612.05 783.62 709.9 749.57 907.4 712.68 1070.82 673.38 1075.82 635.99 913.23 603.13 712.88 570.27 653.39 543.49 778.07 520.83 971.45 495.74 1083.39 470.01 1024.06 438.79 845.86 398.57 662.85 345.62 584.91 276.35 632.55 195.56 766.05 100.55 894.2 -1.52 953.8 -95.32 929.13 -173.61 830.44 -220.41 701.35 -227.6 563.52 -190.06 453.97 -112.09 379.48 -17.87 330.55 76.11 304.14 141.73 285.11 153.08 273.39 106.1 254.14 8.89 221.28 -113.14 188.42 -218.74 143.51 -279.15 93.26 -284.04 50.31 -230.06 16.94 -134.66 8.91 -18.02 26.45 94.72 81.87 184.59 169.05 242.99 247.5 266.16 299.02 261.09 280.65 230.84 178 191.32 10.89 153.85 -156.83 114.76 -238.7 89.03 -190.26 78.56 -31.34 73.55 122.77 82.08 163.43 101.19 38.85 122.56 -167.21 150.54 -298.58 183.4 -239.14 216.26 -38.81 252.45 130.46 293.05 138.19 335.91 -12.51 387.16 -191.32 449.12 -265.11 516.54 -189.1 596.38 -12.35 686.12 158.76 774.24 248.6 860.93 227.91 934.25 136.36 982.38 16.52 998.18 -66.3 973.99 -89.12 918.34 -56.66 835.07 19.86 742.52 112.23 671.2 217.33 635.92 309.44 653.5 381.35 726.59 450.57 838.85 501.21 960.89 534.08Q960.89 534.08 960.89 534.08" opacity="0.38"></path><path d="M926.89 318.31C1018.66 348.83 1062.14 359.72 1050.07 354.93 989.03 354.15 892.32 347.48 782.53 348.74 677.46 373.95 595.32 430.1 544.51 527.83 527.35 651.12 538.61 790.45 567.89 907.62 613.09 959.22 657.91 924.85 694.15 807.91 727.11 671.93 744.97 580.85 748.13 603.24 745.19 742.91 730.94 931.36 708.81 1053.09 684.56 1026.39 656.28 863.69 625.77 678.88 595.25 616.85 563.95 717.11 530.65 895.74 495.24 1032.06 453.98 1029.93 404.04 900.1 348.01 716.9 279.89 580.57 199.9 544.77 116.63 610.87 28 728.22 -57.18 834.86 -126.45 900.4 -173.88 896.03 -188.5 836.27 -169.46 735.95 -114.69 624.6 -31.99 523.92 55.43 428.4 134.77 355.33 184.03 301.67 184.32 253.63 134.66 216.16 42.89 185.64 -70.35 155.13 -171.12 133.01 -235.45 123.51 -254.12 119.61 -220.56 137.17 -146 179.8 -44.93 227.6 63.1 288.71 160.48 342 238.6 354.76 288.98 315.33 313 209.82 312.2 63.19 295.77 -90.34 273.08 -188.23 242.02 -184.22 216.32 -75.28 200.52 85.54 185.68 193.02 182.95 177.82 192.19 29.76 202.58 -160.64 223.24 -267.12 253.75 -205.14 284.26 -20.35 323.19 148.56 370.35 187.07 418.65 77.15 476.89 -93.93 544.61 -211.25 613.28 -211.3 689.23 -92.88 767.33 74.86 837.04 223.59 897.28 294.15 938.08 282.56 954.05 205.4 939.85 109.88 893.5 33.61 827.89 -17.09 747.22 -23.01 668.51 4.65 616.32 56.26 600.13 118.44 630.58 176.76 706.69 239.1 813.64 287.79 926.89 318.31Q926.89 318.31 926.89 318.31" opacity="0.19"></path><path d="M892.89 177.64C978.95 205.8 1024.53 230.25 1022.92 255.4 978.27 286.34 898.68 328.69 801.16 391.21 699.52 469.06 609.9 571.26 542.12 689.94 491.52 839.38 524.82 830.62 569.5 655.04 602.6 560.26 626.91 540.38 640 624.94 650.34 865.98 616.29 893.77 577.83 644.88 549.66 581.38 515.25 658.44 474.48 817.51 432.42 966.25 381.87 1013.04 322.37 940.42 260.48 786.61 189.78 626.78 113.26 524.53 40.24 506.48 -30.3 564.08 -89.91 657.29 -130.62 759.48 -147.55 827.08 -134.51 848.41 -96.06 829.4 -31.69 775.61 49.29 706.39 126.16 623.67 189.72 546.83 223.5 484.16 214.24 421.44 162.95 375.24 76.89 347.06 -27.52 318.9 -122.71 310.09 -189.12 319.69 -219.02 329.23 -204.04 354.83 -150.61 388.74 -68.68 409.16 27.79 416.58 123.74 392.19 211.67 327.45 281.01 219.43 329.18 80.33 356.9 -49.8 367.13 -140.81 366.24 -152.11 353.8 -79.2 339.85 55.36 329.79 188.53 317.11 240.53 312.82 177.74 318.85 18.14 324.87 -151.8 341.64 -234.59 369.81 -171.14 397.98 -1.98 436.21 163.18 483.31 227.05 530.4 159.43 585.92 11.54 647.41 -126.9 706.29 -190.83 766.62 -145.7 822.48 -21.6 866.78 135.3 896.99 264.69 906.18 335.2 894.93 341.38 858.98 297.65 800.39 233.71 733.76 158.44 662.54 102.62 601.25 73.58 568.47 59.88 569.52 68.77 610.29 90.95 687.57 118.92 788.47 149.47 892.89 177.64Q892.89 177.64 892.89 177.64" opacity="0.47"></path><path d="M858.89 241.38C938.98 267.2 985.61 305.37 992.86 356.7 963.33 410.57 901.14 480.9 818.58 566.17 725.85 649.86 636.16 737.12 559.27 811.92 498.82 855.43 459.05 858.34 438.15 809.51 435.13 725.49 443.68 618.94 457.54 527.51 478.97 496.85 497.81 544.56 510.22 669.24 525.62 889.53 508.01 840.92 474.3 610.88 448.48 547 413.85 602.47 371.24 738.54 328.3 888.28 277.09 971.77 219.06 956.15 161.91 852.18 100.55 704.61 39.33 569.37 -14.32 480.97 -59.94 460.25 -90.75 494.67 -103.7 570.28 -94.54 652.32 -60.97 717.59 -10.97 766.11 55.56 782.2 129.36 772.18 192.99 744.72 240.49 705.46 260.06 664.91 242.84 620.3 190.98 582.96 110.89 557.14 15.33 531.32 -73.6 518.23 -140.33 514.15 -178.8 506.01 -179.95 498.3 -146.77 481.02 -85.81 446.31 -5.96 387.71 80.82 299.4 168.6 194.35 246.91 75.23 310.88 -34.21 360.99 -102.49 395.4 -112.4 417.28 -50.9 430.08 119.65 435.19 214.56 445.15 5.78 453.13 -140.25 469.45 -200.99 495.27 -137.15 521.09 16.33 555.19 174.65 595.9 257.83 635.79 230.86 680.45 117.27 726.58 -19.94 768.22 -125.71 806.26 -150.28 835.49 -92.74 853.41 25.56 856.07 162.72 839.8 280.59 809.67 363.26 761.98 397.42 701.08 393.71 641.17 358.7 584.48 313.96 542.44 275.02 528.18 234.49 544.03 211.13 592.47 205.95 669.16 203.31 763.33 215.56 858.89 241.38Q858.89 241.38 858.89 241.38" opacity="0.46"></path><path d="M824.93 450.96C898.78 474.43 945.42 512.68 959.85 563.07 943.78 611.77 898.47 668.27 832.4 724.85 752.76 769.17 669.53 799 591.42 802.25 521.47 778.39 465.71 721.42 425.08 637.26 391.41 518.63 383.88 538.4 389.89 724.82 396.27 859.09 397.33 945.83 391.07 945.76 385.25 858.71 371.04 714.77 347.57 576.89 324.1 513.7 292.47 549.66 254.03 660.7 216.02 801.35 172.26 907.1 125.2 940.24 81.07 894.55 37.32 787.2 -1.74 657.09 -32.05 533.85 -51.54 449.8 -55.74 413.45 -45.87 422.76 -17.95 463.62 27.55 516.33 81.22 578.46 143.4 627.96 205.83 658.83 270.68 684.06 244.48 655.87 144.93 622.74 58.24 599.27 -23.85 572.75 -89.24 540.81 -133.61 505.16 -148.01 457.64 -133.14 394.14 -93.24 322.59 -33.01 234.45 38.78 136.14 117.74 47.25 194.96 -27.29 264.78 -67.37 327.73 -61.79 379.08 -5.57 419.24 93.23 450.76 198.9 474.28 285.2 492.87 313.68 506.83 263.33 520.13 144.22 535.31 -5.47 549.33 -125.57 567.54 -166.29 591.01 -103.1 614.48 34.77 642.1 183.46 672.35 279.57 701.43 288.7 730.84 215.32 757.55 98.26 787.21 -60.43 786.63 -6.88 745.63 156.43 706.57 271.35 657.18 362.02 602.67 422.06 535.71 459.39 509.62 437.35 576.92 426.02 651.35 419.9 738.21 427.48 824.89 450.95Q824.93 450.96 824.93 450.96" opacity="0.77"></path><path d="M790.54 613.56C858 634.68 903.79 659.71 923.83 685.6 919.4 708.28 889.88 725.62 840.75 731.21 776.95 725.84 705.33 701.19 632.99 654.75 562.16 599.63 499.13 532.34 446.38 466.41 402.64 424.98 369.52 415.63 345.25 452.51 328.55 534.62 316.88 651.84 307.34 778.56 301.31 877.92 293.94 922.51 283.12 892.15 273.13 797.59 258.04 665.16 236.91 542.78 215.79 481.36 189.63 500.22 159.79 585.68 130.76 709.15 99.71 822.38 69.12 890.25 42.06 899.15 18.94 846.36 3.08 752.27 -5.2 635.98 -2.41 526.23 13.63 440.95 38.7 384.33 76.68 361.11 125.51 362.84 175.85 386.16 228.53 417.09 276.84 445.36 310.49 477.43 327.99 498.29 324.26 505.33 296.07 511.73 246 504.55 178.54 483.43 100.7 462.31 25.98 428.25 -36.47 382.01 -84 335.14 -108.33 275.84 -108.83 207.17 -88.38 142.29 -48.47 76.57 4.97 20.68 68.75 -13.61 136.36 -20.73 202.44 8.18 267.51 65.76 325.9 150.46 376.14 244.75 421.44 316.87 459.13 350.73 490.42 326.36 518.21 243.02 542.29 117.78 564.24 -13.84 585.14 -107.47 605.86 -130.64 626.98 -69.25 648.11 53.1 668.63 189.83 687.57 292.56 705.47 331.1 719.82 298.54 728.63 214.68 733.96 103.44 731.06 5.16 718.31 -54.96 700.63 -69.85 672.58 -35.45 635.19 33.65 596.8 127.28 554.24 224.89 512.45 312.58 481 391.57 460.03 451.01 455.07 492.99 471.06 524.01 507.41 545.1 563.09 562.26 633.7 576.21 712.71 592.43 790.54 613.56Q790.54 613.56 790.54 613.56" opacity="0.43"></path><path d="M756.92 579.89C839.47 603.82 881.86 602.64 840.83 569.96 793.81 541.14 737.03 500.58 675.85 453.06 611.74 413.67 550.15 381.3 494.11 367.63 442.18 383.07 397.8 430.46 360.93 510.9 329.13 611.79 303.15 721.77 281.47 818.05 262.75 876.71 245.82 883.36 229.24 830.94 213.48 734.92 196.49 615.91 177.71 508.85 158.93 450.3 139.25 454.81 119.6 515.54 100.77 616.28 83.54 723.66 69.72 809.34 58.86 859.36 53.91 860.2 56.77 817.57 64.7 740.69 82.13 646.68 109.44 552.67 140.87 463.79 180.2 393.78 224.75 344.64 266.39 312.54 306.33 296.69 339.58 290.34 358.93 292.8 364.08 295.85 352.06 294.31 321.15 294.58 273.6 286.36 212.92 267.58 143.98 248.8 77.02 220.36 18.72 184.67 -29.64 150.8 -60.83 113.59 -73.56 78.59 -69.99 52.39 -49.39 37.32 -15.38 40.49 29.61 60.68 81.66 103.73 136.36 168 194.05 237.4 249.57 309.15 300.56 366.48 350.15 389.55 394.03 371.87 431.85 308.09 467.87 208.65 498.87 90.58 525.24 -17.4 550.96 -85.38 573.23 -93.69 592.01 -35.14 610.79 71.91 625.19 194.72 634.88 297.99 643.92 357.66 647.09 361.69 643.62 316.8 638.34 234.28 625.38 141.14 604.74 59.8 582.69 -1.08 554.13 -26.2 521.05 -17.03 490.95 21.24 461.17 80.56 435.72 148.89 421.25 225.36 417.49 296.84 427.68 358.2 454.16 416.94 496.03 464.07 551.64 500.29 617.18 534.74 687.94 561.1 756.88 579.88Q756.92 579.89 756.92 579.89" opacity="0.86"></path><path d="M722.88 380.68C820.09 413.54 856.75 401.2 832 357.94 760.25 331.4 659.56 320.28 557.7 376.5 457.19 507.11 375.57 691.71 315.28 832.36 262.12 832.1 220.59 675.18 187.73 474.84 154.87 415.4 133.78 532.09 130 704.54 133.34 820.61 163.68 798.37 221.12 683.33 279.9 523.66 345.74 390.24 393.41 305.55 394.07 244.09 344.09 206.15 246.88 173.29 124.84 140.43 24.83 115.76 -27.48 120.27 -33.79 148.01 10.06 230.15 82 346.75 173.02 418.72 262.84 406.1 336.78 265.95 409.54 69.41 464.17 -60.59 497.03 -1.15 533.89 284.3 485.8 202.33 418.59 39.92 389.72 26.77 380.71 89.17 411.11 172.66 487.52 272.87 600.84 347.82 722.88 380.68Q722.88 380.68 722.88 380.68" opacity="0.77"></path><path d="M688.93 199.27C774.97 227.44 817.02 239.38 812.86 252.42 772.01 286.23 702.17 356.41 622.93 477.31 536.3 617.45 458.12 754.04 396.32 814.81 336.97 763.62 292.25 610.06 264.09 440.89 235.92 377.39 226.97 448.22 237.51 586.96 250.5 726.19 284.72 784.67 334.43 758.85 376.76 671.32 416.72 561.42 436.93 468.74 420.44 377.03 366.97 315.67 280.93 287.5 176.5 259.34 86.32 267.03 28.71 309.92 1.02 353.79 12.58 419.73 51.33 470.35 109.28 459.26 174.77 370.92 233.81 211.05 295.4 51.67 343.5 -30.59 371.67 32.85 399.84 202.01 405.42 367.01 392.63 438.86 382.41 398.76 360.87 292.04 339.84 188.81 338 104.83 356.31 78.6 404.64 93.61 482.88 129.37 584.47 171.1 688.89 199.26Q688.93 199.27 688.93 199.27" opacity="0.88"></path><path d="M654.93 202.33C728.77 225.8 772.19 265.66 782.82 326.31 767.72 395.86 727.94 494.69 675.71 610.23 613.31 707.65 551.6 771.69 499.51 763.31 446.75 683.17 406.41 544.77 382.94 406.89 359.46 343.7 355.09 375.23 367.17 469.56 378.58 594.13 403.66 689.18 435.3 731.41 456.76 731.14 471.65 691.56 469.54 640.31 441.7 577.98 388.77 528.59 314.93 505.12 228.24 481.65 150.47 486.32 93.78 507.97 54.11 518.54 42.26 521.49 53.06 491 78.68 418.02 115.7 298.08 153.99 156.3 195.97 44.76 231.72 3.69 255.19 66.85 278.67 204.71 287.64 352.64 286.34 450.02 288.73 475.61 288.34 436.47 293.47 369.82 313.43 285.04 350.18 222.84 407.04 193.96 480.93 173.99 568.21 178.85 654.89 202.32Q654.93 202.33 654.93 202.33" opacity="0.39"></path><path d="M620.75 387.07C681.47 405.85 722.43 449.13 741.77 510.71 745.29 569.93 730.5 639.02 703.93 699.92 668.64 734.41 629.67 732.61 593.97 680.87 556.41 594.16 526.06 479.92 507.28 372.84 488.5 314.26 483.08 315.92 488.09 365.16 491.25 450.37 500.92 537.1 511.59 602.66 513.56 654.42 508.43 675.73 491.15 674.16 458.04 663.55 409.47 644.82 348.75 626.04 279.8 607.26 216.39 590.22 165.92 568.28 123.41 537.32 98.68 486.7 90.64 410.33 91.53 320.15 103.83 213.51 122.12 114.53 143.37 51.53 165.26 42.26 184.04 100.84 202.82 207.92 216.71 329.77 228 430.24 242.25 495.75 259.26 517.47 282.98 507.59 315.63 471.3 360.27 431.52 416.55 404.84 480.78 375.8 551.8 368.29 620.75 387.07Q620.75 387.07 620.75 387.07" opacity="0.47"></path><path d="M586.93 583.75C672.97 611.91 707.91 671.07 699.09 692 668.96 649.69 625.97 508.06 597.81 338.89 569.64 275.4 561.63 333.96 554.84 422.91 526.74 526 468.97 567.35 382.93 539.19 278.49 511.02 198.39 418.67 162.11 278.65 141.39 152.79 152.12 71.4 180.29 134.89 208.46 304.06 248.72 468.52 306.36 547.74 379.56 563.73 482.49 555.58 586.93 583.75Q586.93 583.75 586.93 583.75" opacity="0.22"></path><path d="M552.89 611.42C660.14 648.98 664.21 535.66 626.66 304.88 589.1 253.65 524.14 361.86 416.89 324.3 277.48 286.75 207.7 117.65 245.26 168.88 282.81 399.66 413.48 573.87 552.89 611.42Q552.89 611.42 552.89 611.42" opacity="0.80"></path></g></svg>