<svg xmlns="http://www.w3.org/2000/svg" version="1.1" xmlns:xlink="http://www.w3.org/1999/xlink" viewBox="0 0 700 700" style="overflow: hidden; display: block;" width="700" height="700"><defs></defs><g id="two-0" transform="matrix(1 0 0 1 0 0)" opacity="1"><path transform="matrix(1 0 0 1 350 350)" id="two-24" d="M 216.316616 63.516289 C 187.052706 73.586098 138.531789 52.358516 123.932456 79.646553 C 101.968009 120.700939 205.898887 169.475644 180.87367 208.739342 C 165.838307 232.329305 124.089412 211.067354 96.121576 210.476894 C 74.151587 210.013061 49.48477 196.819055 29.661935 206.303294 C -8.726279 224.670142 -2.512591 316.36292 -44.799908 311.590204 C -84.606663 307.097454 -53.740333 213.961391 -91.039862 199.349488 C -137.201519 181.265891 -180.643772 278.932317 -227.392101 262.424472 C -258.027118 251.606586 -268.540076 206.543951 -270.977344 174.146564 C -273.688374 138.110195 -260.092171 98.195795 -237.733275 69.804787 C -210.243689 34.898902 -124.153691 44.403765 -122.603284 0 C -121.373128 -35.231752 -193.215326 -30.549516 -209.866618 -61.622399 C -221.497491 -83.326706 -224.163813 -114.830329 -211.950421 -136.212265 C -200.073768 -157.004672 -166.836976 -155.981296 -148.443431 -171.312851 C -130.409054 -186.34503 -126.846086 -225.736713 -103.376692 -226.36338 C -62.211353 -227.462554 -59.88897 -127.270992 -19.289386 -134.160626 C 28.963674 -142.349033 -9.996497 -272.630407 38.9034 -270.579094 C 76.245749 -269.012612 49.76357 -191.099716 74.461292 -163.047489 C 85.879959 -150.077912 104.495587 -142.117326 121.694162 -140.442551 C 176.528902 -135.102816 246.704561 -223.234281 283.363635 -182.106752 C 309.590247 -152.683322 229.538129 -108.477614 240.50769 -70.61943 C 251.371756 -33.12533 338.327697 -38.926918 335.406983 -0.000001 C 332.074482 44.415174 258.432938 49.023922 216.316616 63.516289 Z " fill="hsl(205, 69%, 50%)" stroke="undefined" stroke-width="1" stroke-opacity="1" fill-opacity="1" visibility="visible" stroke-linecap="butt" stroke-linejoin="miter" stroke-miterlimit="4"></path></g></svg>