<svg xmlns="http://www.w3.org/2000/svg" version="1.1" xmlns:xlink="http://www.w3.org/1999/xlink" xmlns:svgjs="http://svgjs.dev/svgjs" viewBox="0 0 800 800"><g fill="none" stroke-width="3" stroke="hsl(231, 100%, 64%)" stroke-linecap="round"><line x1="708" y1="400" x2="92" y2="400" transform="rotate(0, 400, 400)" opacity="0.26"></line><line x1="356.5" y1="400" x2="443.5" y2="400" transform="rotate(4, 400, 400)" opacity="0.51"></line><line x1="185" y1="400" x2="615" y2="400" transform="rotate(8, 400, 400)" opacity="0.84"></line><line x1="713.5" y1="400" x2="86.5" y2="400" transform="rotate(12, 400, 400)" opacity="0.85"></line><line x1="469" y1="400" x2="331" y2="400" transform="rotate(16, 400, 400)" opacity="0.08"></line><line x1="455.5" y1="400" x2="344.5" y2="400" transform="rotate(20, 400, 400)" opacity="0.82"></line><line x1="60.5" y1="400" x2="739.5" y2="400" transform="rotate(24, 400, 400)" opacity="0.22"></line><line x1="287.5" y1="400" x2="512.5" y2="400" transform="rotate(28, 400, 400)" opacity="0.46"></line><line x1="191" y1="400" x2="609" y2="400" transform="rotate(32, 400, 400)" opacity="0.32"></line><line x1="620" y1="400" x2="180" y2="400" transform="rotate(36, 400, 400)" opacity="0.16"></line><line x1="91" y1="400" x2="709" y2="400" transform="rotate(40, 400, 400)" opacity="0.76"></line><line x1="420.5" y1="400" x2="379.5" y2="400" transform="rotate(44, 400, 400)" opacity="0.31"></line><line x1="288.5" y1="400" x2="511.5" y2="400" transform="rotate(48, 400, 400)" opacity="0.64"></line><line x1="383" y1="400" x2="417" y2="400" transform="rotate(52, 400, 400)" opacity="0.22"></line><line x1="93" y1="400" x2="707" y2="400" transform="rotate(56, 400, 400)" opacity="0.25"></line><line x1="527.5" y1="400" x2="272.5" y2="400" transform="rotate(60, 400, 400)" opacity="0.84"></line><line x1="676" y1="400" x2="124" y2="400" transform="rotate(64, 400, 400)" opacity="0.75"></line><line x1="713" y1="400" x2="87" y2="400" transform="rotate(68, 400, 400)" opacity="0.11"></line><line x1="459" y1="400" x2="341" y2="400" transform="rotate(72, 400, 400)" opacity="0.56"></line><line x1="270" y1="400" x2="530" y2="400" transform="rotate(76, 400, 400)" opacity="0.75"></line><line x1="334" y1="400" x2="466" y2="400" transform="rotate(80, 400, 400)" opacity="0.31"></line><line x1="666.5" y1="400" x2="133.5" y2="400" transform="rotate(84, 400, 400)" opacity="0.98"></line><line x1="505.5" y1="400" x2="294.5" y2="400" transform="rotate(88, 400, 400)" opacity="0.94"></line><line x1="172.5" y1="400" x2="627.5" y2="400" transform="rotate(92, 400, 400)" opacity="0.89"></line><line x1="376.5" y1="400" x2="423.5" y2="400" transform="rotate(96, 400, 400)" opacity="0.53"></line><line x1="49.5" y1="400" x2="750.5" y2="400" transform="rotate(100, 400, 400)" opacity="0.23"></line><line x1="500.5" y1="400" x2="299.5" y2="400" transform="rotate(104, 400, 400)" opacity="0.27"></line><line x1="715" y1="400" x2="85" y2="400" transform="rotate(108, 400, 400)" opacity="0.25"></line><line x1="140" y1="400" x2="660" y2="400" transform="rotate(112, 400, 400)" opacity="0.99"></line><line x1="686" y1="400" x2="114" y2="400" transform="rotate(116, 400, 400)" opacity="0.88"></line><line x1="736" y1="400" x2="64" y2="400" transform="rotate(120, 400, 400)" opacity="0.18"></line><line x1="358.5" y1="400" x2="441.5" y2="400" transform="rotate(124, 400, 400)" opacity="0.15"></line><line x1="162.5" y1="400" x2="637.5" y2="400" transform="rotate(128, 400, 400)" opacity="0.42"></line><line x1="509.5" y1="400" x2="290.5" y2="400" transform="rotate(132, 400, 400)" opacity="0.89"></line><line x1="391.5" y1="400" x2="408.5" y2="400" transform="rotate(136, 400, 400)" opacity="0.82"></line><line x1="277.5" y1="400" x2="522.5" y2="400" transform="rotate(140, 400, 400)" opacity="0.79"></line><line x1="566" y1="400" x2="234" y2="400" transform="rotate(144, 400, 400)" opacity="0.91"></line><line x1="211.5" y1="400" x2="588.5" y2="400" transform="rotate(148, 400, 400)" opacity="0.48"></line><line x1="345" y1="400" x2="455" y2="400" transform="rotate(152, 400, 400)" opacity="0.56"></line><line x1="694" y1="400" x2="106" y2="400" transform="rotate(156, 400, 400)" opacity="0.61"></line><line x1="51.5" y1="400" x2="748.5" y2="400" transform="rotate(160, 400, 400)" opacity="0.24"></line><line x1="230" y1="400" x2="570" y2="400" transform="rotate(164, 400, 400)" opacity="0.97"></line><line x1="353.5" y1="400" x2="446.5" y2="400" transform="rotate(168, 400, 400)" opacity="0.25"></line><line x1="279" y1="400" x2="521" y2="400" transform="rotate(172, 400, 400)" opacity="0.42"></line><line x1="241" y1="400" x2="559" y2="400" transform="rotate(176, 400, 400)" opacity="0.15"></line><line x1="420" y1="400" x2="380" y2="400" transform="rotate(180, 400, 400)" opacity="0.55"></line><line x1="284" y1="400" x2="516" y2="400" transform="rotate(184, 400, 400)" opacity="0.56"></line><line x1="96.5" y1="400" x2="703.5" y2="400" transform="rotate(188, 400, 400)" opacity="0.95"></line><line x1="375" y1="400" x2="425" y2="400" transform="rotate(192, 400, 400)" opacity="0.78"></line><line x1="51.5" y1="400" x2="748.5" y2="400" transform="rotate(196, 400, 400)" opacity="0.51"></line><line x1="426.5" y1="400" x2="373.5" y2="400" transform="rotate(200, 400, 400)" opacity="0.36"></line><line x1="677.5" y1="400" x2="122.5" y2="400" transform="rotate(204, 400, 400)" opacity="0.76"></line><line x1="392" y1="400" x2="408" y2="400" transform="rotate(208, 400, 400)" opacity="0.85"></line><line x1="175" y1="400" x2="625" y2="400" transform="rotate(212, 400, 400)" opacity="0.76"></line><line x1="389" y1="400" x2="411" y2="400" transform="rotate(216, 400, 400)" opacity="0.88"></line><line x1="618" y1="400" x2="182" y2="400" transform="rotate(220, 400, 400)" opacity="0.45"></line><line x1="627" y1="400" x2="173" y2="400" transform="rotate(224, 400, 400)" opacity="0.76"></line><line x1="412" y1="400" x2="388" y2="400" transform="rotate(228, 400, 400)" opacity="0.28"></line><line x1="221.5" y1="400" x2="578.5" y2="400" transform="rotate(232, 400, 400)" opacity="0.96"></line><line x1="566.5" y1="400" x2="233.5" y2="400" transform="rotate(236, 400, 400)" opacity="0.82"></line><line x1="331.5" y1="400" x2="468.5" y2="400" transform="rotate(240, 400, 400)" opacity="0.09"></line><line x1="658.5" y1="400" x2="141.5" y2="400" transform="rotate(244, 400, 400)" opacity="0.42"></line><line x1="659.5" y1="400" x2="140.5" y2="400" transform="rotate(248, 400, 400)" opacity="0.92"></line><line x1="356.5" y1="400" x2="443.5" y2="400" transform="rotate(252, 400, 400)" opacity="0.94"></line><line x1="576.5" y1="400" x2="223.5" y2="400" transform="rotate(256, 400, 400)" opacity="0.84"></line><line x1="547.5" y1="400" x2="252.5" y2="400" transform="rotate(260, 400, 400)" opacity="0.59"></line><line x1="30" y1="400" x2="770" y2="400" transform="rotate(264, 400, 400)" opacity="0.11"></line><line x1="161" y1="400" x2="639" y2="400" transform="rotate(268, 400, 400)" opacity="0.90"></line><line x1="664" y1="400" x2="136" y2="400" transform="rotate(272, 400, 400)" opacity="0.39"></line><line x1="686" y1="400" x2="114" y2="400" transform="rotate(276, 400, 400)" opacity="0.46"></line><line x1="24" y1="400" x2="776" y2="400" transform="rotate(280, 400, 400)" opacity="0.36"></line><line x1="618" y1="400" x2="182" y2="400" transform="rotate(284, 400, 400)" opacity="0.43"></line><line x1="676.5" y1="400" x2="123.5" y2="400" transform="rotate(288, 400, 400)" opacity="0.68"></line><line x1="708" y1="400" x2="92" y2="400" transform="rotate(292, 400, 400)" opacity="0.36"></line><line x1="435.5" y1="400" x2="364.5" y2="400" transform="rotate(296, 400, 400)" opacity="0.81"></line><line x1="580.5" y1="400" x2="219.5" y2="400" transform="rotate(300, 400, 400)" opacity="0.69"></line><line x1="68" y1="400" x2="732" y2="400" transform="rotate(304, 400, 400)" opacity="0.15"></line><line x1="732" y1="400" x2="68" y2="400" transform="rotate(308, 400, 400)" opacity="0.29"></line><line x1="192" y1="400" x2="608" y2="400" transform="rotate(312, 400, 400)" opacity="0.90"></line><line x1="27.5" y1="400" x2="772.5" y2="400" transform="rotate(316, 400, 400)" opacity="0.24"></line><line x1="481.5" y1="400" x2="318.5" y2="400" transform="rotate(320, 400, 400)" opacity="0.76"></line><line x1="473" y1="400" x2="327" y2="400" transform="rotate(324, 400, 400)" opacity="0.18"></line><line x1="454.5" y1="400" x2="345.5" y2="400" transform="rotate(328, 400, 400)" opacity="0.47"></line><line x1="203.5" y1="400" x2="596.5" y2="400" transform="rotate(332, 400, 400)" opacity="0.65"></line><line x1="235.5" y1="400" x2="564.5" y2="400" transform="rotate(336, 400, 400)" opacity="0.94"></line><line x1="564" y1="400" x2="236" y2="400" transform="rotate(340, 400, 400)" opacity="0.61"></line><line x1="739.5" y1="400" x2="60.5" y2="400" transform="rotate(344, 400, 400)" opacity="0.23"></line><line x1="675.5" y1="400" x2="124.5" y2="400" transform="rotate(348, 400, 400)" opacity="0.92"></line></g></svg>