<svg xmlns="http://www.w3.org/2000/svg" version="1.1" xmlns:xlink="http://www.w3.org/1999/xlink" xmlns:svgjs="http://svgjs.dev/svgjs" viewBox="0 0 800 800"><g fill="none" stroke-width="3" stroke="hsl(205, 69%, 50%)" stroke-linecap="round"><line x1="167" y1="400" x2="633" y2="400" transform="rotate(0, 400, 400)" opacity="0.81"></line><line x1="234" y1="400" x2="566" y2="400" transform="rotate(4, 400, 400)" opacity="0.81"></line><line x1="458" y1="400" x2="342" y2="400" transform="rotate(8, 400, 400)" opacity="0.69"></line><line x1="95" y1="400" x2="705" y2="400" transform="rotate(12, 400, 400)" opacity="0.09"></line><line x1="725.5" y1="400" x2="74.5" y2="400" transform="rotate(16, 400, 400)" opacity="0.44"></line><line x1="184" y1="400" x2="616" y2="400" transform="rotate(20, 400, 400)" opacity="0.37"></line><line x1="349.5" y1="400" x2="450.5" y2="400" transform="rotate(24, 400, 400)" opacity="0.78"></line><line x1="159.5" y1="400" x2="640.5" y2="400" transform="rotate(28, 400, 400)" opacity="0.27"></line><line x1="97" y1="400" x2="703" y2="400" transform="rotate(32, 400, 400)" opacity="0.95"></line><line x1="581.5" y1="400" x2="218.5" y2="400" transform="rotate(36, 400, 400)" opacity="0.23"></line><line x1="732" y1="400" x2="68" y2="400" transform="rotate(40, 400, 400)" opacity="0.18"></line><line x1="128.5" y1="400" x2="671.5" y2="400" transform="rotate(44, 400, 400)" opacity="0.63"></line><line x1="590.5" y1="400" x2="209.5" y2="400" transform="rotate(48, 400, 400)" opacity="0.93"></line><line x1="718" y1="400" x2="82" y2="400" transform="rotate(52, 400, 400)" opacity="0.47"></line><line x1="40" y1="400" x2="760" y2="400" transform="rotate(56, 400, 400)" opacity="0.78"></line><line x1="168.5" y1="400" x2="631.5" y2="400" transform="rotate(60, 400, 400)" opacity="0.92"></line><line x1="283.5" y1="400" x2="516.5" y2="400" transform="rotate(64, 400, 400)" opacity="0.88"></line><line x1="122.5" y1="400" x2="677.5" y2="400" transform="rotate(68, 400, 400)" opacity="0.43"></line><line x1="589.5" y1="400" x2="210.5" y2="400" transform="rotate(72, 400, 400)" opacity="0.81"></line><line x1="605.5" y1="400" x2="194.5" y2="400" transform="rotate(76, 400, 400)" opacity="0.38"></line><line x1="156.5" y1="400" x2="643.5" y2="400" transform="rotate(80, 400, 400)" opacity="0.39"></line><line x1="680" y1="400" x2="120" y2="400" transform="rotate(84, 400, 400)" opacity="0.96"></line><line x1="219" y1="400" x2="581" y2="400" transform="rotate(88, 400, 400)" opacity="0.27"></line><line x1="737.5" y1="400" x2="62.5" y2="400" transform="rotate(92, 400, 400)" opacity="0.12"></line><line x1="77.5" y1="400" x2="722.5" y2="400" transform="rotate(96, 400, 400)" opacity="0.65"></line><line x1="593.5" y1="400" x2="206.5" y2="400" transform="rotate(100, 400, 400)" opacity="0.66"></line><line x1="120" y1="400" x2="680" y2="400" transform="rotate(104, 400, 400)" opacity="0.61"></line><line x1="677.5" y1="400" x2="122.5" y2="400" transform="rotate(108, 400, 400)" opacity="0.15"></line><line x1="505" y1="400" x2="295" y2="400" transform="rotate(112, 400, 400)" opacity="0.55"></line><line x1="522" y1="400" x2="278" y2="400" transform="rotate(116, 400, 400)" opacity="0.98"></line><line x1="424" y1="400" x2="376" y2="400" transform="rotate(120, 400, 400)" opacity="0.26"></line><line x1="29.5" y1="400" x2="770.5" y2="400" transform="rotate(124, 400, 400)" opacity="0.08"></line><line x1="609" y1="400" x2="191" y2="400" transform="rotate(128, 400, 400)" opacity="0.78"></line><line x1="195" y1="400" x2="605" y2="400" transform="rotate(132, 400, 400)" opacity="0.43"></line><line x1="434" y1="400" x2="366" y2="400" transform="rotate(136, 400, 400)" opacity="0.60"></line><line x1="427" y1="400" x2="373" y2="400" transform="rotate(140, 400, 400)" opacity="0.63"></line><line x1="572.5" y1="400" x2="227.5" y2="400" transform="rotate(144, 400, 400)" opacity="0.60"></line><line x1="483" y1="400" x2="317" y2="400" transform="rotate(148, 400, 400)" opacity="0.29"></line><line x1="743" y1="400" x2="57" y2="400" transform="rotate(152, 400, 400)" opacity="0.64"></line><line x1="403" y1="400" x2="397" y2="400" transform="rotate(156, 400, 400)" opacity="0.31"></line><line x1="51.5" y1="400" x2="748.5" y2="400" transform="rotate(160, 400, 400)" opacity="0.83"></line><line x1="378.5" y1="400" x2="421.5" y2="400" transform="rotate(164, 400, 400)" opacity="0.84"></line><line x1="302.5" y1="400" x2="497.5" y2="400" transform="rotate(168, 400, 400)" opacity="0.95"></line><line x1="641.5" y1="400" x2="158.5" y2="400" transform="rotate(172, 400, 400)" opacity="0.62"></line><line x1="544" y1="400" x2="256" y2="400" transform="rotate(176, 400, 400)" opacity="0.46"></line><line x1="282.5" y1="400" x2="517.5" y2="400" transform="rotate(180, 400, 400)" opacity="0.51"></line><line x1="37" y1="400" x2="763" y2="400" transform="rotate(184, 400, 400)" opacity="0.70"></line><line x1="466.5" y1="400" x2="333.5" y2="400" transform="rotate(188, 400, 400)" opacity="0.73"></line><line x1="556.5" y1="400" x2="243.5" y2="400" transform="rotate(192, 400, 400)" opacity="0.89"></line><line x1="592.5" y1="400" x2="207.5" y2="400" transform="rotate(196, 400, 400)" opacity="0.32"></line><line x1="375.5" y1="400" x2="424.5" y2="400" transform="rotate(200, 400, 400)" opacity="0.20"></line><line x1="594" y1="400" x2="206" y2="400" transform="rotate(204, 400, 400)" opacity="0.80"></line><line x1="732.5" y1="400" x2="67.5" y2="400" transform="rotate(208, 400, 400)" opacity="0.64"></line><line x1="202.5" y1="400" x2="597.5" y2="400" transform="rotate(212, 400, 400)" opacity="0.34"></line><line x1="85" y1="400" x2="715" y2="400" transform="rotate(216, 400, 400)" opacity="0.99"></line><line x1="302" y1="400" x2="498" y2="400" transform="rotate(220, 400, 400)" opacity="0.12"></line><line x1="234" y1="400" x2="566" y2="400" transform="rotate(224, 400, 400)" opacity="0.18"></line><line x1="595" y1="400" x2="205" y2="400" transform="rotate(228, 400, 400)" opacity="0.93"></line><line x1="318" y1="400" x2="482" y2="400" transform="rotate(232, 400, 400)" opacity="0.81"></line><line x1="118" y1="400" x2="682" y2="400" transform="rotate(236, 400, 400)" opacity="0.09"></line><line x1="549.5" y1="400" x2="250.5" y2="400" transform="rotate(240, 400, 400)" opacity="0.73"></line><line x1="337.5" y1="400" x2="462.5" y2="400" transform="rotate(244, 400, 400)" opacity="0.34"></line><line x1="193" y1="400" x2="607" y2="400" transform="rotate(248, 400, 400)" opacity="0.52"></line><line x1="291" y1="400" x2="509" y2="400" transform="rotate(252, 400, 400)" opacity="0.97"></line><line x1="543" y1="400" x2="257" y2="400" transform="rotate(256, 400, 400)" opacity="0.76"></line><line x1="580.5" y1="400" x2="219.5" y2="400" transform="rotate(260, 400, 400)" opacity="0.42"></line><line x1="592" y1="400" x2="208" y2="400" transform="rotate(264, 400, 400)" opacity="0.43"></line><line x1="352" y1="400" x2="448" y2="400" transform="rotate(268, 400, 400)" opacity="0.11"></line><line x1="136.5" y1="400" x2="663.5" y2="400" transform="rotate(272, 400, 400)" opacity="0.38"></line><line x1="334" y1="400" x2="466" y2="400" transform="rotate(276, 400, 400)" opacity="0.49"></line><line x1="261.5" y1="400" x2="538.5" y2="400" transform="rotate(280, 400, 400)" opacity="0.24"></line><line x1="111.5" y1="400" x2="688.5" y2="400" transform="rotate(284, 400, 400)" opacity="0.19"></line><line x1="705" y1="400" x2="95" y2="400" transform="rotate(288, 400, 400)" opacity="0.25"></line><line x1="538" y1="400" x2="262" y2="400" transform="rotate(292, 400, 400)" opacity="0.90"></line><line x1="730" y1="400" x2="70" y2="400" transform="rotate(296, 400, 400)" opacity="0.39"></line><line x1="630.5" y1="400" x2="169.5" y2="400" transform="rotate(300, 400, 400)" opacity="0.52"></line><line x1="458.5" y1="400" x2="341.5" y2="400" transform="rotate(304, 400, 400)" opacity="0.43"></line><line x1="167.5" y1="400" x2="632.5" y2="400" transform="rotate(308, 400, 400)" opacity="0.31"></line><line x1="81.5" y1="400" x2="718.5" y2="400" transform="rotate(312, 400, 400)" opacity="0.68"></line><line x1="595" y1="400" x2="205" y2="400" transform="rotate(316, 400, 400)" opacity="0.34"></line><line x1="195" y1="400" x2="605" y2="400" transform="rotate(320, 400, 400)" opacity="0.54"></line><line x1="244.5" y1="400" x2="555.5" y2="400" transform="rotate(324, 400, 400)" opacity="0.60"></line><line x1="216.5" y1="400" x2="583.5" y2="400" transform="rotate(328, 400, 400)" opacity="0.08"></line><line x1="495" y1="400" x2="305" y2="400" transform="rotate(332, 400, 400)" opacity="0.42"></line><line x1="601.5" y1="400" x2="198.5" y2="400" transform="rotate(336, 400, 400)" opacity="0.11"></line><line x1="604.5" y1="400" x2="195.5" y2="400" transform="rotate(340, 400, 400)" opacity="0.56"></line><line x1="398.5" y1="400" x2="401.5" y2="400" transform="rotate(344, 400, 400)" opacity="0.56"></line><line x1="741.5" y1="400" x2="58.5" y2="400" transform="rotate(348, 400, 400)" opacity="0.08"></line></g></svg>